<?xml version="1.0" standalone="no"?>
<!DOCTYPE svg PUBLIC "-//W3C//DTD SVG 1.1//EN" "http://www.w3.org/Graphics/SVG/1.1/DTD/svg11.dtd" >
<!--
2013-9-30: Created.
-->
<svg>
<metadata>
Created by iconfont
</metadata>
<defs>

<font id="iconfont" horiz-adv-x="1024" >
  <font-face
    font-family="iconfont"
    font-weight="500"
    font-stretch="normal"
    units-per-em="1024"
    ascent="896"
    descent="-128"
  />
    <missing-glyph />
    
    <glyph glyph-name="chengli" unicode="&#58902;" d="M512 384m-445 0a445 445 0 1 1 890 0 445 445 0 1 1-890 0ZM555.8 199.5V549.9c0 8.4-6.8 15.2-15.2 15.2H357.7c-8.4 0-15.2-6.8-15.2-15.2v-335.2c0-8.4 6.8-15.2 15.2-15.2M555.8 459.4h114.3c8.4 0 15.2-6.8 15.2-15.2v-229.5c0-8.4-6.8-15.2-15.2-15.2H555.8M641.7 392.3H596c-4.6 0-8.3 3.7-8.3 8.3 0 4.6 3.7 8.3 8.3 8.3h45.7c4.6 0 8.3-3.7 8.3-8.3-0.1-4.6-3.8-8.3-8.3-8.3zM641.7 342.7H596c-4.6 0-8.3 3.7-8.3 8.3 0 4.6 3.7 8.3 8.3 8.3h45.7c4.6 0 8.3-3.7 8.3-8.3-0.1-4.6-3.8-8.3-8.3-8.3zM641.7 293.1H596c-4.6 0-8.3 3.7-8.3 8.3s3.7 8.3 8.3 8.3h45.7c4.6 0 8.3-3.7 8.3-8.3s-3.8-8.3-8.3-8.3zM511.5 495H386.8c-3.4 0-6.2 2.8-6.2 6.2v0.6c0 3.4 2.8 6.2 6.2 6.2h124.8c3.4 0 6.2-2.8 6.2-6.2v-0.6c-0.1-3.4-2.8-6.2-6.3-6.2zM511.5 442.7H386.8c-3.4 0-6.2 2.8-6.2 6.2v0.6c0 3.4 2.8 6.2 6.2 6.2h124.8c3.4 0 6.2-2.8 6.2-6.2v-0.6c-0.1-3.4-2.8-6.2-6.3-6.2zM511.5 390.3H386.8c-3.4 0-6.2 2.8-6.2 6.2v0.6c0 3.4 2.8 6.2 6.2 6.2h124.8c3.4 0 6.2-2.8 6.2-6.2v-0.6c-0.1-3.4-2.8-6.2-6.3-6.2zM511.5 338H386.8c-3.4 0-6.2 2.8-6.2 6.2v0.6c0 3.4 2.8 6.2 6.2 6.2h124.8c3.4 0 6.2-2.8 6.2-6.2v-0.6c-0.1-3.5-2.8-6.2-6.3-6.2zM478.9 199.5H421v86c0 4.2 3.4 7.6 7.6 7.6h42.7c4.2 0 7.6-3.4 7.6-7.6v-86z"  horiz-adv-x="1024" />

    
    <glyph glyph-name="dichengben" unicode="&#58903;" d="M512 384m-445 0a445 445 0 1 1 890 0 445 445 0 1 1-890 0ZM512 594.6c-91.4 0-165.6-74.1-165.6-165.5 0-56.5 28.3-106.3 71.4-136.1 12.2-8.5 24-17.5 34.4-28.1l1.3-1.3c0-0.2 29.2-0.3 58.4-0.3s58.4 0.1 58.4 0.3l1.3 1.3c10.4 10.6 22.2 19.7 34.4 28.1 43.2 29.9 71.4 79.7 71.4 136.1 0.2 91.4-74 165.5-165.4 165.5zM529.2 185.7h-34.4c-13.3 0-25.5 7.5-31.5 19.5h97.4c-6-12-18.2-19.5-31.5-19.5zM570.9 244.1H453.1c-5.1 0-9.3-4.2-9.3-9.3v-0.9c0-5.1 4.2-9.3 9.3-9.3h117.7c5.1 0 9.3 4.2 9.3 9.3v0.9c0.1 5.1-4.1 9.3-9.2 9.3zM561.4 498.1c-2 1.5-4.5 2.2-7 2.2-4 0-7.7-1.9-10.2-5.2L512 448.4l-32.4 46.9c-2.3 3.1-6.1 5-10 5-2.6 0-5-0.8-6.7-2.1-5.6-3.7-7.2-11.1-3.5-17.2l35-50.4H474c-5.4 0-9.9-4.5-9.9-9.9 0-5.6 4.5-10.3 9.9-10.3h25.7v-9H474c-5.4 0-9.9-4.6-9.9-10.1s4.5-10.1 9.9-10.1h25.7v-23.3c0-6.8 5.4-12.1 12.3-12.1s12.3 5.3 12.3 12.1v23.3H550c5.5 0 9.9 4.5 9.9 10.1s-4.4 10.1-9.9 10.1h-25.7v9H550c5.5 0 9.9 4.6 9.9 10.3 0 5.5-4.4 9.9-9.9 9.9h-20.2l34.9 50.4c3.6 5.8 2.2 13.2-3.3 17.1zM561.1 224.6h-98.3c-5.1 0-9.3-4.2-9.3-9.3v-0.9c0-5.1 4.2-9.3 9.3-9.3h98.3c5.1 0 9.3 4.2 9.3 9.3v0.9c0 5.2-4.1 9.3-9.3 9.3zM570.9 263.6H453.1c-5.1 0-9.3-4.2-9.3-9.3v-0.9c0-5.1 4.2-9.3 9.3-9.3h117.7c5.1 0 9.3 4.2 9.3 9.3v0.9c0.1 5.1-4.1 9.3-9.2 9.3z"  horiz-adv-x="1024" />

    
    <glyph glyph-name="huiyuanxitong" unicode="&#58911;" d="M512 384m-445 0a445 445 0 1 1 890 0 445 445 0 1 1-890 0ZM710.3 294c-5 36.9-30.3 67.3-64.4 79.6 21.6 11.9 36.2 34.8 36.2 61.1 0 38.5-31.2 69.7-69.8 69.7-38.5 0-69.8-31.2-69.8-69.7 0-26.4 14.6-49.3 36.2-61.1-34-12.3-59.4-42.7-64.4-79.6-0.9-7 4.5-13.3 11.5-13.3h172.8c7.3 0 12.7 6.3 11.7 13.3zM509.5 294c-5 36.9-30.3 67.3-64.4 79.6 21.6 11.9 36.2 34.8 36.2 61.1 0 38.5-31.2 69.7-69.8 69.7-38.5 0-69.8-31.2-69.8-69.7 0-26.4 14.6-49.3 36.2-61.1-34-12.3-59.4-42.7-64.4-79.6-0.9-7 4.5-13.3 11.5-13.3h173c7.1 0 12.5 6.3 11.5 13.3zM512 365.9c69.3 0 126.6-51.5 135.6-118.4 1.3-9.7-6.2-18.4-16-18.4H392.4c-9.8 0-17.3 8.7-16 18.4 9 66.9 66.3 118.4 135.6 118.4zM512 442.3m-96.6 0a96.6 96.6 0 1 1 193.2 0 96.6 96.6 0 1 1-193.2 0Z"  horiz-adv-x="1024" />

    
    <glyph glyph-name="guanlilinghuo" unicode="&#58904;" d="M512 384m-445 0a445 445 0 1 1 890 0 445 445 0 1 1-890 0ZM367 296.2h-15.3v76.3c0 12.6 10.3 22.9 22.9 22.9h274.8c12.6 0 22.9-10.3 22.9-22.9v-68.7H657v68.7c0 4.2-3.4 7.6-7.6 7.6H374.6c-4.2 0-7.6-3.4-7.6-7.6v-76.3zM504.4 475.6h15.3v-167.9h-15.3zM541.3 452.7h-58.5c-9.1 0-16.5 7.4-16.5 16.5v58.5c0 9.1 7.4 16.5 16.5 16.5h58.5c9.1 0 16.5-7.4 16.5-16.5v-58.5c0-9.1-7.4-16.5-16.5-16.5zM541.3 223.7h-58.5c-9.1 0-16.5 7.4-16.5 16.5v58.5c0 9.1 7.4 16.5 16.5 16.5h58.5c9.1 0 16.5-7.4 16.5-16.5v-58.5c0-9.1-7.4-16.5-16.5-16.5zM693.9 223.7h-58.5c-9.1 0-16.5 7.4-16.5 16.5v58.5c0 9.1 7.4 16.5 16.5 16.5h58.5c9.1 0 16.5-7.4 16.5-16.5v-58.5c0-9.1-7.4-16.5-16.5-16.5zM404.8 303.1c-1.2 6-5.9 10.7-11.9 11.9-1 0.2-2 0.3-3.1 0.3h-61.1c-8.4 0-15.3-6.8-15.3-15.3v-61c0-8.4 6.8-15.3 15.3-15.3h61.1c8.4 0 15.3 6.8 15.3 15.3v61c0 1.1-0.1 2.1-0.3 3.1z"  horiz-adv-x="1024" />

    
    <glyph glyph-name="fuwugongdan" unicode="&#58905;" d="M512 384m-445 0a445 445 0 1 1 890 0 445 445 0 1 1-890 0ZM376.6 362.3l201.8 201.8c6.2 6.2 16.1 6.2 22.3 0l125-125c6.2-6.2 6.2-16.1 0-22.3L523.8 215.1c-6.2-6.2-16.1-6.2-22.3 0l-125 125c-6.1 6.1-6.1 16.1 0.1 22.2zM501.5 215.1L299.7 416.9c-6.2 6.2-6.2 16.1 0 22.3l125 125c6.2 6.2 16.1 6.2 22.3 0l201.8-201.8c6.2-6.2 6.2-16.1 0-22.3l-125-125c-6.2-6.2-16.1-6.2-22.3 0zM648.2 362.9L447.5 563.6c-6.5 6.5-16.9 6.5-23.4 0L300.3 439.7c-6.5-6.5-6.5-16.9 0-23.4L501 215.6c6.5-6.5 16.9-6.5 23.4 0l21.2 21.2c-0.6 0.4-1.3 0.7-1.9 1.2l-67.9 68c-3.2 3.2-3.2 8.5 0 11.7 3.2 3.2 8.5 3.2 11.7 0l67.9-67.9c0.6-0.6 0.9-1.2 1.2-1.9l24.1 24.1c-0.6 0.4-1.3 0.7-1.9 1.2l-67.8 68c-3.2 3.2-3.2 8.5 0 11.7 3.2 3.2 8.5 3.2 11.7 0l67.9-67.9c0.6-0.6 0.9-1.2 1.2-1.9l24.1 24.1c-0.6 0.4-1.3 0.7-1.9 1.2l-67.9 67.9c-3.2 3.2-3.2 8.5 0 11.7 3.2 3.2 8.5 3.2 11.7 0l67.9-67.9c0.6-0.6 0.9-1.2 1.2-1.9l21.2 21.2c6.6 6.6 6.6 17 0.1 23.5zM557.9 388.1c-3.2 3.2-8.5 3.2-11.7 0-3.2-3.2-3.2-8.5 0-11.7l67.9-67.9c0.6-0.6 1.2-0.9 1.9-1.2l11.1 11.1c-0.4 0.6-0.7 1.3-1.2 1.9l-68 67.8zM522.7 352.9c-3.2 3.2-8.5 3.2-11.7 0-3.2-3.2-3.2-8.5 0-11.7l67.9-67.9c0.6-0.6 1.2-0.9 1.9-1.2l11.1 11.1c-0.4 0.6-0.7 1.3-1.2 1.9l-68 67.8zM487.5 317.7c-3.2 3.2-8.5 3.2-11.7 0-3.2-3.2-3.2-8.5 0-11.7l67.9-67.9c0.6-0.6 1.2-0.9 1.9-1.2l11.1 11.1c-0.4 0.6-0.7 1.3-1.2 1.9l-68 67.8z"  horiz-adv-x="1024" />

    
    <glyph glyph-name="qita" unicode="&#58912;" d="M512 384m-445 0a445 445 0 1 1 890 0 445 445 0 1 1-890 0ZM466 415.7H356.9c-8.3 0-15 6.7-15 15V539.9c0 8.3 6.7 15 15 15H466c8.3 0 15-6.7 15-15v-109.1c0-8.4-6.7-15.1-15-15.1zM660.1 415.7H551c-8.3 0-15 6.7-15 15V539.9c0 8.3 6.7 15 15 15h109.1c8.3 0 15-6.7 15-15v-109.1c0-8.4-6.7-15.1-15-15.1zM466 223.5H356.9c-8.3 0-15 6.7-15 15V347.6c0 8.3 6.7 15 15 15H466c8.3 0 15-6.7 15-15v-109.1c0-8.3-6.7-15-15-15zM595.4 209.2l-73.7 73.7c-5.6 5.6-5.6 14.7 0 20.3l73.7 73.7c5.6 5.6 14.7 5.6 20.3 0l73.7-73.7c5.6-5.6 5.6-14.7 0-20.3l-73.7-73.7c-5.6-5.6-14.7-5.6-20.3 0z"  horiz-adv-x="1024" />

    
    <glyph glyph-name="keshihuaguanli" unicode="&#58906;" d="M512 384m-445 0a445 445 0 1 1 890 0 445 445 0 1 1-890 0ZM710.4 317.9H313.6V541.1c0 9.1 7.4 16.5 16.5 16.5h363.8c9.1 0 16.5-7.4 16.5-16.5v-223.2zM710.4 317.9H313.6V541.1c0 9.1 7.4 16.5 16.5 16.5h363.8c9.1 0 16.5-7.4 16.5-16.5v-223.2zM558.1 284.8H465.9l-16.6-57.9h125.4zM636 210.4H388c-4.6 0-8.3 3.7-8.3 8.3 0 4.6 3.7 8.3 8.3 8.3h248c4.6 0 8.3-3.7 8.3-8.3 0-4.6-3.7-8.3-8.3-8.3zM693.9 284.8H330.1c-9.1 0-16.5 7.4-16.5 16.5v16.5h396.9v-16.5c-0.1-9.1-7.5-16.5-16.6-16.5zM437.3 469.9L390.7 400c-3.4-5 0.3-11.8 6.3-11.8h93.1c6.1 0 9.7 6.8 6.3 11.8L450 469.9c-3 4.5-9.7 4.5-12.7 0zM604.9 473.9c-10.6 7.6-24.2 11.1-38.7 8.4-19.4-3.7-35.1-19.3-38.9-38.7-6.2-31.8 18-59.6 48.6-59.6 24.7 0 45.1 18 49 41.6 0.7 4.2-2.8 8-7.1 8H593c-6.3 0-9.5 7.6-5 12.1l17.5 17.5c3.1 3.1 2.9 8.2-0.6 10.7zM614.9 442h24.8c4.3 0 7.7 3.8 7.1 8-1.3 7.7-4.3 14.8-8.7 20.9-2.5 3.5-7.6 3.7-10.6 0.7L610 454.1c-4.6-4.5-1.4-12.1 4.9-12.1z"  horiz-adv-x="1024" />

    
    <glyph glyph-name="shujubaobiao" unicode="&#58913;" d="M512 384m-445 0a445 445 0 1 1 890 0 445 445 0 1 1-890 0ZM693.9 512.5H330.1c-9.1 0-16.5 7.4-16.5 16.5v3c0 9.1 7.4 16.5 16.5 16.5h363.8c9.1 0 16.5-7.4 16.5-16.5v-3c0-9.1-7.4-16.5-16.5-16.5zM340.6 512.5v-275.1c0-10 8.1-18 18-18h306.7c10 0 18 8.1 18 18V512.5H340.6zM417.3 278c-1.9 0-3.9 0.6-5.5 1.9-3.9 3.1-4.6 8.7-1.6 12.7l63.1 81.2c3.1 3.9 8.7 4.6 12.7 1.6 3.9-3.1 4.6-8.7 1.6-12.7l-63.1-81.2c-1.9-2.3-4.5-3.5-7.2-3.5zM543.6 296.1c-1.9 0-3.9 0.6-5.5 1.9-3.9 3.1-4.6 8.7-1.6 12.7l63.1 81.2c3.1 3.9 8.7 4.7 12.7 1.6 3.9-3.1 4.6-8.7 1.6-12.7l-63.1-81.2c-1.9-2.3-4.6-3.5-7.2-3.5zM417.3 287m-27.1 0a27.1 27.1 0 1 1 54.2 0 27.1 27.1 0 1 1-54.2 0ZM539.1 300.6c-2.3 0-4.6 0.9-6.4 2.6l-58.6 58.6c-3.5 3.5-3.5 9.2 0 12.8 3.5 3.5 9.2 3.5 12.8 0l58.6-58.6c3.5-3.5 3.5-9.2 0-12.8-1.8-1.8-4.1-2.6-6.4-2.6zM480.4 368.2m-27.1 0a27.1 27.1 0 1 1 54.2 0 27.1 27.1 0 1 1-54.2 0ZM543.6 305.1m-27.1 0a27.1 27.1 0 1 1 54.2 0 27.1 27.1 0 1 1-54.2 0ZM606.7 386.3m-27.1 0a27.1 27.1 0 1 1 54.2 0 27.1 27.1 0 1 1-54.2 0ZM376.7 476.5m-9 0a9 9 0 1 1 18 0 9 9 0 1 1-18 0ZM457.9 467.4h-54.1c-5 0-9 4-9 9s4 9 9 9h54.1c5 0 9-4 9-9 0-4.9-4-9-9-9zM376.7 443.4m-9 0a9 9 0 1 1 18 0 9 9 0 1 1-18 0ZM494 434.4h-90.2c-5 0-9 4-9 9s4 9 9 9H494c5 0 9-4 9-9s-4.1-9-9-9z"  horiz-adv-x="1024" />

    
    <glyph glyph-name="tuisongduanxintongzhi" unicode="&#58914;" d="M512 384m-445 0a445 445 0 1 1 890 0 445 445 0 1 1-890 0ZM348.1 198c-2.2 0-4.4 0.8-6.1 2.5-3.4 3.4-3.4 8.8 0 12.2l73.3 73.3c3.4 3.4 8.8 3.4 12.2 0 3.4-3.4 3.4-8.8 0-12.2l-73.3-73.3c-1.7-1.7-3.9-2.5-6.1-2.5zM443 206.6c-2.2 0-4.4 0.8-6.1 2.5-3.4 3.4-3.4 8.8 0 12.2l73.3 73.3c3.4 3.4 8.8 3.4 12.2 0 3.4-3.4 3.4-8.8 0-12.2l-73.3-73.3c-1.7-1.7-3.9-2.5-6.1-2.5zM710.4 570.4l-379.6-73.7 105.5-63.2 274.1 136.9M436.3 433.5l21.1-115.9 32.9 85.2 220.1 167.6zM540.1 370.5l-82.7-52.9 31.6 84.3 105.4 21zM710.4 570.4l-84.3-252.8L489 401.9zM556.3 314.3a72.2 72.2 0 1 1 144.4 0 72.2 72.2 0 1 1-144.4 0ZM322.2 275.5c-2.2 0-4.4 0.8-6.1 2.5-3.4 3.4-3.4 8.8 0 12.2l73.3 73.3c3.4 3.4 8.8 3.4 12.2 0 3.4-3.4 3.4-8.8 0-12.2L328.3 278c-1.7-1.6-3.9-2.5-6.1-2.5zM625.9 286v43.8c-8.2-6.3-13.6-9.4-16.5-9.4-1.3 0-2.5 0.5-3.6 1.6-1 1.1-1.6 2.3-1.6 3.7 0 1.6 0.5 2.8 1.5 3.6 1 0.8 2.8 1.8 5.4 3 3.9 1.8 7 3.8 9.3 5.8 2.3 2 4.4 4.3 6.2 6.8 1.8 2.5 3 4 3.5 4.6 0.5 0.6 1.6 0.9 3.1 0.9 1.7 0 3.1-0.7 4.1-2 1-1.3 1.5-3.1 1.5-5.4v-55.1c0-6.4-2.2-9.7-6.6-9.7-2 0-3.5 0.7-4.7 2-1 1.3-1.6 3.3-1.6 5.8z"  horiz-adv-x="1024" />

    
    <glyph glyph-name="wajuekehujiazhi" unicode="&#58907;" d="M512 384m-445 0a445 445 0 1 1 890 0 445 445 0 1 1-890 0ZM511.5 176.5c-109.4 0-198.4 89-198.4 198.4s89 198.4 198.4 198.4S710 484.4 710 375s-89.1-198.5-198.5-198.5zM511.5 564c104.4 0 189-84.6 189-189s-84.6-189-189-189-189 84.6-189 189 84.6 189 189 189m0 18.9c-114.6 0-207.9-93.3-207.9-207.9s93.3-207.9 207.9-207.9S719.4 260.3 719.4 375s-93.3 207.9-207.9 207.9zM511.5 375m-189 0a189 189 0 1 1 378 0 189 189 0 1 1-378 0ZM373.1 375a138.4 136.5 0 1 1 276.8 0 138.4 136.5 0 1 1-276.8 0ZM511.5 375m-85 0a85 85 0 1 1 170 0 85 85 0 1 1-170 0ZM511.5 375m-37.8 0a37.8 37.8 0 1 1 75.6 0 37.8 37.8 0 1 1-75.6 0ZM704.2 534.5l-26.3 7.1-7.1 26.4c-1.9 7-10.7 9.4-15.8 4.2l-51.4-51.4c-1.5-1.5-2.3-3.4-2.6-5.4 0-0.2-0.1-0.4-0.1-0.5-0.1-1.1-0.1-2.1 0.2-3.2l7-26.1-102-102c-3.8-3.8-3.8-9.9 0-13.7 1.9-1.9 4.4-2.8 6.8-2.8s4.9 0.9 6.8 2.8l102 102 26.1-7c3.3-0.9 6.7 0.1 9.1 2.4l51.4 51.4c5.2 5.2 2.9 13.9-4.1 15.8z"  horiz-adv-x="1024" />

    
    <glyph glyph-name="weilai" unicode="&#58908;" d="M512 384m-445 0a445 445 0 1 1 890 0 445 445 0 1 1-890 0ZM512 242.3c-31.2-9.9-61.7-14-88.9-12.3 23.3-35.2 54.5-56.7 88.9-56.7 34.4 0 65.6 21.5 88.9 56.7-27.2-1.6-57.7 2.4-88.9 12.3zM512 525.7c31.2 9.9 61.7 14 88.9 12.3-23.3 35.2-54.5 56.7-88.9 56.7-34.4 0-65.6-21.5-88.9-56.7 27.2 1.6 57.7-2.4 88.9-12.3zM389.4 454.8c7.1 32 18.8 60.4 33.8 83.1-42.1-2.6-76.3-18.9-93.5-48.6-17.2-29.8-14.2-67.6 4.7-105.4 12 24.5 30.8 48.8 55 70.9zM634.6 313.2c-7.1-32-18.8-60.4-33.8-83.1 42.1 2.6 76.3 18.9 93.5 48.6 17.2 29.8 14.2 67.6-4.7 105.4-12-24.5-30.8-48.8-55-70.9zM689.7 384c18.8 37.7 21.8 75.6 4.7 105.4-17.2 29.8-51.4 46.1-93.5 48.6 15-22.7 26.7-51.1 33.8-83.1 24.1-22.2 42.9-46.5 55-70.9zM334.3 384c-18.8-37.7-21.8-75.6-4.7-105.4 17.2-29.8 51.4-46.1 93.5-48.6-15 22.7-26.7 51.1-33.8 83.1-24.1 22.2-42.9 46.5-55 70.9zM634.6 454.8c-7.1 32-18.8 60.4-33.8 83.1-27.2 1.7-57.6-2.4-88.9-12.3-31.2 9.9-61.7 14-88.9 12.3-15-22.7-26.7-51.1-33.8-83.1-24.2-22.1-42.9-46.5-55.1-70.8 12.2-24.4 30.9-48.7 55.1-70.8 7.1-32 18.8-60.4 33.8-83.1 27.2-1.7 57.6 2.4 88.9 12.3 31.2-9.9 61.7-14 88.9-12.3 15 22.7 26.7 51.1 33.8 83.1 24.2 22.1 42.9 46.5 55.1 70.8-12.1 24.4-30.9 48.7-55.1 70.8zM462.6 384a44.7 44.6 90 1 1 89.2 0 44.7 44.6 90 1 1-89.2 0Z"  horiz-adv-x="1024" />

    
    <glyph glyph-name="xiangmuqidong" unicode="&#58909;" d="M512 384m-445 0a445 445 0 1 1 890 0 445 445 0 1 1-890 0ZM642.4 206.7H379c-8.7 0-15.8 7.1-15.8 15.8V552.9c0 8.7 7.1 15.8 15.8 15.8h263.4c8.7 0 15.8-7.1 15.8-15.8v-330.4c0-8.7-7.1-15.8-15.8-15.8zM620.7 261.2m-75.6 0a75.6 75.6 0 1 1 151.2 0 75.6 75.6 0 1 1-151.2 0ZM606.9 290.8v-59.2c0-5.3 6.2-8.1 10.2-4.6l33.8 29.6c2.8 2.5 2.8 6.8 0 9.3l-33.8 29.6c-3.9 3.4-10.2 0.6-10.2-4.7zM578.1 467.6H443.2c-4.6 0-8.3 3.7-8.3 8.3s3.7 8.3 8.3 8.3h134.9c4.6 0 8.3-3.7 8.3-8.3s-3.7-8.3-8.3-8.3zM578.1 409H443.2c-4.6 0-8.3 3.7-8.3 8.3 0 4.6 3.7 8.3 8.3 8.3h134.9c4.6 0 8.3-3.7 8.3-8.3 0-4.6-3.7-8.3-8.3-8.3zM578.1 350.3H443.2c-4.6 0-8.3 3.7-8.3 8.3s3.7 8.3 8.3 8.3h134.9c4.6 0 8.3-3.7 8.3-8.3s-3.7-8.3-8.3-8.3zM501.9 291.7h-58.6c-4.6 0-8.3 3.7-8.3 8.3 0 4.6 3.7 8.3 8.3 8.3h58.6c4.6 0 8.3-3.7 8.3-8.3 0-4.6-3.7-8.3-8.3-8.3z"  horiz-adv-x="1024" />

    
    <glyph glyph-name="xiangmushangxian" unicode="&#58910;" d="M512 384m-445 0a445 445 0 1 1 890 0 445 445 0 1 1-890 0ZM512.2 214.8c-4.4 0-7.9 3.5-7.9 7.9V274c0 4.4 3.5 7.9 7.9 7.9s7.9-3.5 7.9-7.9v-51.3c0-4.3-3.5-7.9-7.9-7.9zM666.1 214.8H358.3c-4.4 0-7.9 3.5-7.9 7.9s3.5 7.9 7.9 7.9h307.9c4.4 0 7.9-3.5 7.9-7.9s-3.6-7.9-8-7.9zM686.8 274H337.2c-8.7 0-15.8 7.1-15.8 15.8V529.5c0 8.7 7.1 15.8 15.8 15.8h349.6c8.7 0 15.8-7.1 15.8-15.8v-239.7c0-8.7-7.1-15.8-15.8-15.8zM377.6 438.5c0 4.3 3.5 7.8 7.8 7.8H405c16.3 0 29.2-4.3 29.2-19.4 0-7-3.9-14.6-10.2-17v-0.4c7.9-2.1 13.9-8 13.9-18.5 0-16-13.6-23.2-30.7-23.2h-21.8c-4.3 0-7.8 3.5-7.8 7.8v62.9z m26.7-23.3c8 0 11.6 3.5 11.6 8.9 0 5.6-3.7 7.9-11.6 7.9h-7.8v-16.8h7.8z m1.6-32.9c9.1 0 13.7 3.3 13.7 10 0 6.4-4.5 9-13.7 9h-9.4v-19h9.4zM458.8 446.3H493c4.3 0 7.8-3.5 7.8-7.8s-3.5-7.8-7.8-7.8h-23.1v-14.6h18.5c4.3 0 7.8-3.5 7.8-7.8v-0.2c0-4.3-3.5-7.8-7.8-7.8h-18.5v-16.7h24.3c4.3 0 7.8-3.5 7.8-7.8v-0.2c0-4.3-3.5-7.8-7.8-7.8h-35.4c-4.3 0-7.8 3.5-7.8 7.8v62.9c0 4.3 3.5 7.8 7.8 7.8zM524.8 430.7h-5.6c-4.3 0-7.8 3.5-7.8 7.8s3.5 7.8 7.8 7.8H565c4.3 0 7.8-3.5 7.8-7.8s-3.5-7.8-7.8-7.8h-5.7c-4.3 0-7.8-3.5-7.8-7.8v-47.3c0-4.3-3.5-7.8-7.8-7.8h-3.3c-4.3 0-7.8 3.5-7.8 7.8v47.3c0 4.3-3.5 7.8-7.8 7.8zM611.1 385.9h-11c-3.6 0-6.7-2.4-7.6-5.9l-1.6-6.2c-0.9-3.5-4-5.9-7.6-5.9h-2.5c-5.3 0-9 5.1-7.5 10.1l17.9 57.6c2 6.4 7.9 10.8 14.6 10.8 6.7 0 12.6-4.4 14.6-10.8l17.9-57.6c1.6-5-2.2-10.1-7.5-10.1h-3.1c-3.6 0-6.7 2.4-7.6 5.9l-1.6 6.2c-0.7 3.4-3.9 5.9-7.4 5.9z m-0.6 14.5c1.5 0 2.7 1.5 2.3 3l-0.9 3.7c-1.1 4-2.7 10.5-4.1 15.9-0.6 2.4-4 2.4-4.6 0-1.3-5.4-2.9-11.9-4-15.9l-0.9-3.7c-0.4-1.5 0.8-3 2.3-3h9.9z"  horiz-adv-x="1024" />

    
    <glyph glyph-name="zidonghexiao" unicode="&#58915;" d="M512 384m-445 0a445 445 0 1 1 890 0 445 445 0 1 1-890 0ZM650 216.7H374c-16.2 0-29.3 13.1-29.3 29.3V522c0 16.2 13.1 29.3 29.3 29.3h276c16.2 0 29.3-13.1 29.3-29.3v-276c0-16.2-13.1-29.3-29.3-29.3zM650 216.7H374c-16.2 0-29.3 13.1-29.3 29.3V522c0 16.2 13.1 29.3 29.3 29.3h276c16.2 0 29.3-13.1 29.3-29.3v-276c0-16.2-13.1-29.3-29.3-29.3zM454.8 441.2h-75.3v75.3h75.3v-75.3z m-66.9 8.3h58.6v58.6h-58.6v-58.6zM400.4 495.6h33.5v-33.5h-33.5zM644.5 441.2h-75.3v75.3h75.3v-75.3z m-67 8.3h58.6v58.6h-58.6v-58.6zM590.1 495.6h33.5v-33.5h-33.5zM454.8 251.5h-75.3v75.3h75.3v-75.3z m-66.9 8.4h58.6v58.6h-58.6v-58.6zM644.5 251.5h-75.3v75.3h75.3v-75.3z m-67 8.4h58.6v58.6h-58.6v-58.6zM400.4 305.9h33.5v-33.5h-33.5zM590.1 305.9h33.5v-33.5h-33.5zM454.8 441.2h-75.3v75.3h75.3v-75.3z m-66.9 8.3h58.6v58.6h-58.6v-58.6zM400.4 495.6h33.5v-33.5h-33.5zM644.5 441.2h-75.3v75.3h75.3v-75.3z m-67 8.3h58.6v58.6h-58.6v-58.6zM590.1 495.6h33.5v-33.5h-33.5zM454.8 251.5h-75.3v75.3h75.3v-75.3z m-66.9 8.4h58.6v58.6h-58.6v-58.6zM644.5 251.5h-75.3v75.3h75.3v-75.3z m-67 8.4h58.6v58.6h-58.6v-58.6zM400.4 305.9h33.5v-33.5h-33.5zM590.1 305.9h33.5v-33.5h-33.5zM696.1 388.2H327.9c-4.6 0-8.4 3.7-8.4 8.4 0 4.6 3.7 8.4 8.4 8.4H696c4.6 0 8.4-3.7 8.4-8.4s-3.7-8.4-8.3-8.4zM696.1 388.2H327.9c-4.6 0-8.4 3.7-8.4 8.4 0 4.6 3.7 8.4 8.4 8.4H696c4.6 0 8.4-3.7 8.4-8.4s-3.7-8.4-8.3-8.4zM327.9 350.5c-4.6 0-8.4-3.7-8.4-8.4 0-4.6 3.7-8.4 8.4-8.4h16.7v16.7h-16.7zM327.9 350.5c-4.6 0-8.4-3.7-8.4-8.4 0-4.6 3.7-8.4 8.4-8.4h16.7v16.7h-16.7zM696.1 350.5h-16.7v-16.7h16.7c4.6 0 8.4 3.7 8.4 8.4-0.1 4.6-3.8 8.3-8.4 8.3zM696.1 350.5h-16.7v-16.7h16.7c4.6 0 8.4 3.7 8.4 8.4-0.1 4.6-3.8 8.3-8.4 8.3zM344.7 367.3h334.7v-16.7H344.7zM344.7 367.3h334.7v-16.7H344.7z"  horiz-adv-x="1024" />

    
    <glyph glyph-name="diguifuwuqi" unicode="&#58970;" d="M444 759.7L123.8 571.2l3.2-371.5 323.3-183 320.2 188.5-3.2 371.5zM630 608.4l-20.1 11.4-279.7-164.7L333 129l20.1-11.3-2.8 326zM746.8 406.2l-8.6-5.2c-4.7-2.9-6.2-9-3.4-13.7 1.9-3.1 5.2-4.8 8.6-4.8 1.8 0 3.5 0.5 5.2 1.4l8.6 5.2c4.7 2.9 6.2 9 3.4 13.7-2.9 4.7-9 6.2-13.8 3.4zM638.6 362c-1.6 0.9-3.4 1.3-5.2 1.3-4.9 0-9.9-2.6-13-4.6-20.6-13-38-47.5-38-75.2 0-12.2 3.4-21.4 9.1-24.5 6-3.3 14 0.6 18.2 3.3 20.6 13 38 47.5 38 75.2 0 12.2-3.4 21.3-9.1 24.5z m-9.9-50.4l-8.6-5.2c-1.6-1-3.4-1.4-5.2-1.4-3.4 0-6.7 1.7-8.6 4.8-2.9 4.7-1.3 10.9 3.4 13.7l8.6 5.2c4.7 2.9 10.9 1.3 13.7-3.4 3-4.7 1.5-10.9-3.3-13.7zM618.4 328.7l-8.6-5.2c-4.7-2.9-6.2-9-3.4-13.7 1.9-3.1 5.2-4.8 8.6-4.8 1.8 0 3.5 0.5 5.2 1.4l8.6 5.2c4.7 2.9 6.2 9 3.4 13.7-2.9 4.7-9.1 6.3-13.8 3.4zM444 759.7L123.8 571.2l3.2-371.5 323.3-183 320.1 188.5-3.2 371.5-323.2 183zM166.8 223.1L164 548.4l280.3 165.1 71.2-40.3-280.3-165.1 2.8-325.3-71.2 40.3z m262.8-148.7l-76.5 43.3L333 129l-74.9 42.4-2.8 325.3 280.4 165.1 74.2-42 20.1-11.4 77.8-44-281-165.5 2.8-324.5z m40 0L467 376.2l260.7 153.5 2.6-301.7-260.7-153.6z m287.6 314.7l-8.6-5.2c-1.6-1-3.4-1.4-5.2-1.4-3.4 0-6.7 1.7-8.6 4.8-2.9 4.7-1.3 10.9 3.4 13.7l8.6 5.2c4.7 2.9 10.9 1.3 13.7-3.4 2.9-4.7 1.4-10.9-3.3-13.7zM704 380.4l-8.6-5.2c-4.7-2.9-6.2-9-3.4-13.7 1.9-3.1 5.2-4.8 8.6-4.8 1.8 0 3.5 0.5 5.2 1.4l8.6 5.2c4.7 2.9 6.2 9 3.4 13.7-2.9 4.7-9 6.2-13.8 3.4zM827.2 465.2c-5.5 0-10-4.5-10-10v-10c0-5.5 4.5-10 10-10s10 4.5 10 10v10c0 5.5-4.5 10-10 10zM837.2 505.2c0 5.5-4.5 10-10 10s-10-4.5-10-10v-10c0-5.5 4.5-10 10-10s10 4.5 10 10v10zM837.2 555.2c0 5.5-4.5 10-10 10s-10-4.5-10-10v-10c0-5.5 4.5-10 10-10s10 4.5 10 10v10zM837.2 605.2c0 5.5-4.5 10-10 10s-10-4.5-10-10v-10c0-5.5 4.5-10 10-10s10 4.5 10 10v10zM803.4 428.6c-2.9 4.7-9 6.3-13.7 3.4l-8.6-5.2c-4.7-2.9-6.2-9-3.4-13.7 1.9-3.1 5.2-4.8 8.6-4.8 1.8 0 3.5 0.5 5.2 1.4l8.6 5.2c4.6 2.9 6.1 9 3.3 13.7zM665.3 355.9c-3 10.8-8.9 19.1-17.1 23.6-11.2 6.1-24.8 4.8-38.5-3.9-26.5-16.8-47.3-57.2-47.3-92.1 0-19.9 7.1-35.2 19.5-42 4.6-2.5 9.6-3.8 14.9-3.8 7.5 0 15.6 2.6 23.7 7.7 25.9 16.4 46.4 55.4 47.3 89.7l3.9 2.4c4.7 2.9 6.2 9 3.4 13.7-2.2 3.4-6.1 5.1-9.8 4.7z m-55.6-93.7c-4.2-2.7-12.2-6.6-18.2-3.3-5.7 3.1-9.1 12.3-9.1 24.5 0 27.7 17.4 62.2 38 75.2 3.1 1.9 8.1 4.6 13 4.6 1.8 0 3.6-0.4 5.2-1.3 5.7-3.1 9.1-12.3 9.1-24.5 0-27.7-17.4-62.1-38-75.2zM891.2 574.3c-5.5 0-10-4.5-10-10v-156.4l-81.7-49.3c-4.7-2.9-6.2-9-3.4-13.7 1.9-3.1 5.2-4.8 8.6-4.8 1.8 0 3.5 0.5 5.2 1.4l91.4 55.1V564.3c-0.1 5.5-4.6 10-10.1 10zM817.3 656.4c-0.1-0.4-0.1-0.8-0.1-1.3v-10c0-5.5 4.5-10 10-10s10 4.5 10 10v10c0 0.4 0 0.9-0.1 1.3 23.4 4.6 41 25.3 41 50 0 28.2-22.8 51-51 51s-51-22.8-51-51c0-24.7 17.7-45.4 41.2-50z"  horiz-adv-x="1024" />

    
    <glyph glyph-name="anquanwending" unicode="&#58963;" d="M579.3 651c-27.6 18.8-47.5 38.7-60.1 53.2-12.6-14.5-32.6-34.3-60.3-53.2-51.7-35.2-110.9-54.6-176.4-57.9v-232.9c0-8.5 1.1-18.4 3.4-29.4 0 0 28.5-179.4 233.3-272.1 0 0 148.7 56.3 214 214 15.2 34.7 22.4 65.8 22.4 87.5V593.1c-65.5 3.3-124.7 22.7-176.3 57.9zM618.8 395.3l44.5 95.4H600l-44.5-95.4zM422.2 490.7l-44.5-95.4H441l44.5 95.4zM574.4 490.7h-63.3l-44.5-95.4h63.3zM299.3 490.7v-95.4h52.8l44.5 95.4zM738.9 395.3v95.4h-50l-44.5-95.4zM519.1 58.7c-80.4 34.8-138.6 91.1-177.2 147.5-20.9 7-41 14.5-60.2 22.2 8.1-15.2 17.2-30.4 27.3-45 35.7-51.9 99.7-122.6 201.8-164.5 2.7-1.1 5.5-1.7 8.3-1.7 2.8 0 5.6 0.5 8.3 1.6 74.3 30.6 128.4 76.3 166.1 119-16.7 0.8-33.9 2.1-51.4 3.8-33.1-32.4-73.9-61.7-123-82.9zM891.3 342.8c-7.4 6.6-15.9 13.3-25.5 19.9-19.5 13.7-43.2 27.4-70.3 40.6V610.5c0 12.2-9.8 22.1-21.8 22.1-64.5 0.3-122.3 17.6-171.9 51.4-38.5 26.2-59.2 53.9-64.7 61.8-4.1 5.9-10.8 9.5-18 9.5-7.1 0-13.9-3.5-18-9.4-5.5-7.9-26.3-35.6-64.8-61.8-49.7-33.8-107.6-51.1-172-51.4-12-0.1-21.8-10-21.8-22.1V518c-12.4-0.8-24.1-1.9-35.1-3.4-24.7-3.3-45.7-8.3-62.8-14.9-29-11.3-45.9-27.1-50.3-47-4.2-19 3.6-39.4 23-60.8l0.1-0.1c0.4-0.4 0.7-0.8 1.1-1.2 18.1-19.4 45.5-39.2 81.5-58.9 2.4-1.3 4.9-2.7 7.4-4 13.4-7.1 27.8-14.1 42.9-20.8 4.4-16.6 10.6-33.9 18.3-51.4 17.8-7.7 36.6-15.1 56.3-22.2-10.6 18.4-19.2 36.5-25.8 53.5 55.3-21.1 117.9-39.7 183.8-54.3 74-16.4 146.4-26.4 211.1-29.5-10.1-14.5-21.4-28.9-34.1-42.9 17.1-1.4 33.8-2.4 49.9-2.9 7.2 9.1 13.6 17.9 19.3 26.2 4.2 6.1 8.2 12.3 12.1 18.6 13.9 0.1 27.2 0.5 40.1 1.4 33.5 2.2 61.9 6.9 84.6 14 5 1.6 9.7 3.2 14.1 5 8.7 3.5 16.3 7.5 22.7 11.8-3.3 5.6-7.5 11-12.1 16.1-6.6-4.4-14.9-8.3-24.7-11.7-21.7-7.6-50.9-12.9-85.9-15.2-8.7-0.6-17.7-1-27-1.2 26.8 48.8 42.6 99.1 42.6 138.1V381c28-14.2 51.8-28.8 70.3-43.1 4.4-3.4 8.4-6.7 12.2-10.1 16.3-14.5 34.8-35.8 30.6-55-0.7-3-1.9-5.8-3.6-8.6 5.1-5.5 9.4-11 12.8-16.4 5.2 6.3 8.6 13.2 10.3 20.7 5 23-7.4 48-36.9 74.3z m-681.7 6.6c-0.7 0.4-1.5 0.8-2.2 1.2-33.9 18.7-59.6 37.7-75.5 55.3-0.1 0-0.1-0.1-0.2-0.1-6.3 6.4-10.4 13.4-11.9 16.1-5.6 9.7-7.8 18.6-6 26.6 4.8 21.9 39 38.3 93.6 46 10.9 1.5 22.6 2.7 35.1 3.5v-137.8c0-9 0.9-18.7 2.5-28.8-12.4 5.9-24.3 11.9-35.4 18z m546 10.8c0-31.7-15.5-83.9-48.8-137.7-66.4 2.3-142 12.4-219.5 29.6-71.3 15.8-138.6 36.2-196.6 59.5-5.5 18.8-8.2 35.5-8.2 48.6V593.1c65.5 3.3 124.7 22.7 176.4 57.9 27.7 18.8 47.6 38.7 60.3 53.2 12.6-14.5 32.5-34.3 60.1-53.2 51.6-35.2 110.8-54.6 176.3-57.9v-232.9zM242.2 452.8c-40.1-2.5-73-8.7-97.6-18.3-9.6-3.7-17.9-8-24.8-12.7 3-5.2 7.1-10.5 12.1-16.1 21.2 14 59.5 23.5 110.3 26.9v20.2zM119.7 421.9c1.5-2.7 5.7-9.7 11.9-16.1 0.1 0 0.1 0.1 0.2 0.1-4.9 5.5-9 10.8-12.1 16 0.1 0 0.1 0 0 0zM917.8 247.8c-3.5 5.4-7.8 10.9-12.8 16.4-4.1 4.4-8.6 8.9-13.7 13.4-22.8 20.3-56.1 41.2-97 61.1-0.4-2.7-2.2-14.7-3.4-20.7 36.8-18.3 66.6-37.2 87.1-55.4 4.2-3.7 8.5-7.9 12.5-12.3 4.6-5 8.8-10.5 12.1-16.1 5.1-8.7 7.9-17.9 6-26.6-5.8-26.1-53.9-44.6-128.6-49.5-21.8-1.4-45.4-1.7-70.2-0.9-16.1 0.5-32.8 1.5-49.9 2.9-54.2 4.5-112.8 13.5-172.6 26.8-57.7 12.8-112.7 28.6-162.3 46.5-19.7 7.1-38.5 14.5-56.3 22.2-21.2 9.2-41 18.8-59 28.6-65.7 35.9-101.5 73-95.8 99.1 0.7 3 1.9 5.9 3.6 8.6l-0.1 0.1c-0.9 0.9-6.6 6.7-12.8 16.3-5.2-6.3-8.6-13.2-10.3-20.7-4.3-19.4 3.9-40.3 24.3-62.1 18.1-19.4 45.5-39.2 81.5-58.9 24.4-13.3 51.9-26.2 81.8-38.2 19.1-7.7 39.2-15.1 60.2-22.2 44-14.8 91.5-28 140.9-38.9 54.8-12.1 108.7-20.8 159.2-25.7 17.6-1.7 34.8-3 51.4-3.8 14.7-0.7 28.9-1.1 42.7-1.1 15.6 0 30.7 0.5 45 1.4 40.9 2.7 74.1 9.1 98.7 19 27.7 11.2 43.9 26.7 48.2 46.1 3.1 14.2-0.4 29.1-10.4 44.6zM117.4 391.9s-0.1 0-0.1 0.1c0 0 0.1 0 0.1-0.1z"  horiz-adv-x="1024" />

    
    <glyph glyph-name="duankoutance" unicode="&#58964;" d="M510 387.6m-210.8 0a210.8 210.8 0 1 1 421.6 0 210.8 210.8 0 1 1-421.6 0ZM510 532.6c-80 0-145-65.1-145-145s65.1-145 145-145 145 65.1 145 145-65 145-145 145zM510 552.6c-91 0-165-74-165-165s74-165 165-165 165 74 165 165-74 165-165 165z m0-310.1c-80 0-145 65.1-145 145s65.1 145 145 145 145-65.1 145-145-65-145-145-145zM795.4 407.6H760c-4.7 59.5-30 114.7-72.7 157.4s-98.1 68.1-157.7 72.7v36.6c0 11-9 20-20 20s-20-9-20-20v-36.7c-59.3-4.7-114.5-30.1-157-72.6-42.6-42.6-68-97.9-72.7-157.4H226c-11 0-20-9-20-20s9-20 20-20h34c4.7-59.5 30-114.7 72.7-157.4 42.5-42.5 97.7-67.9 157-72.6v-35.5c0-11 9-20 20-20s20 9 20 20v35.4c59.6 4.6 115 30 157.7 72.7 42.6 42.6 68 97.9 72.7 157.4h35.4c11 0 20 9 20 20s-9 20-20.1 20zM529.7 177.7v51.9c0 11-9 20-20 20s-20-9-20-20v-51.8c-100.1 9.6-180 89.6-189.5 189.8h52.6c11 0 20 9 20 20s-9 20-20 20h-52.6c9.5 100.2 89.4 180.2 189.5 189.8v-50.3c0-11 9-20 20-20s20 9 20 20v50.3c100.5-9.3 180.7-89.5 190.2-189.9h-49.5c-11 0-20-9-20-20s9-20 20-20h49.5c-9.5-100.4-89.8-180.5-190.2-189.8zM880.4 738c0 11-9 20-20 20H510c-50 0-98.5-9.8-144.2-29.1-44.1-18.7-83.7-45.4-117.7-79.4-34-34-60.7-73.6-79.4-117.7-19.3-45.7-29.1-94.2-29.1-144.2 0-11 9-20 20-20s20 9 20 20C179.6 569.8 327.8 718 510 718h281.3v-54.5c0-8.9 10.7-13.3 17-7l67.1 67.1c1.6 1.6 2.5 3.4 2.8 5.3 1.4 2.7 2.2 5.8 2.2 9.1zM860.4 407.6c-11 0-20-9-20-20 0-182.2-148.2-330.4-330.4-330.4H230.3V113c0 8.9-10.7 13.3-17 7l-67.1-67.1c-1-1-1.8-2.2-2.3-3.4-2.7-3.4-4.3-7.7-4.3-12.4 0-11 9-20 20-20H510c50 0 98.5 9.8 144.2 29.1 44.1 18.7 83.7 45.4 117.7 79.4 34 34 60.7 73.6 79.4 117.7 19.3 45.7 29.1 94.2 29.1 144.2 0 11.1-8.9 20.1-20 20.1z"  horiz-adv-x="1024" />

    
    <glyph glyph-name="keyongxingneng" unicode="&#58966;" d="M854.7 67.9H169.9c-38.9 0-70.5 31.6-70.5 70.5v499c0 38.9 31.6 70.5 70.5 70.5h684.7c38.9 0 70.5-31.6 70.5-70.5v-499c0.1-38.9-31.5-70.5-70.4-70.5zM885.2 637.9c0 16.5-13.5 30-30 30H169.4c-16.5 0-30-13.5-30-30v-120.1h745.7V637.9z m-649.7-96.1c-28.2 0-51.2 23-51.2 51.2s23 51.2 51.2 51.2 51.2-23 51.2-51.2-22.9-51.2-51.2-51.2z m281.8 6.8H374.7c-24.1 0-43.7 19.6-43.7 43.7s19.6 43.7 43.7 43.7h142.6c24.1 0 43.7-19.6 43.7-43.7s-19.6-43.7-43.7-43.7zM213.3 143.2h298.8c5.5 0 10 4.5 10 10s-4.5 10-10 10H213.3c-8.5 0-15.4 6.9-15.4 15.4V371.4c0 5.5-4.5 10-10 10s-10-4.5-10-10v-192.9c0.1-19.4 15.9-35.3 35.4-35.3zM235.5 624.2c-17.2 0-31.2-14-31.2-31.2s14-31.2 31.2-31.2 31.2 14 31.2 31.2-14 31.2-31.2 31.2zM235.5 644.2c-28.2 0-51.2-23-51.2-51.2s23-51.2 51.2-51.2 51.2 23 51.2 51.2-22.9 51.2-51.2 51.2z m0-82.4c-17.2 0-31.2 14-31.2 31.2s14 31.2 31.2 31.2 31.2-14 31.2-31.2-14-31.2-31.2-31.2zM517.3 615.9H374.7c-13 0-23.7-10.6-23.7-23.7s10.6-23.7 23.7-23.7h142.6c13 0 23.7 10.6 23.7 23.7s-10.7 23.7-23.7 23.7zM517.3 635.9H374.7c-24.1 0-43.7-19.6-43.7-43.7s19.6-43.7 43.7-43.7h142.6c24.1 0 43.7 19.6 43.7 43.7s-19.6 43.7-43.7 43.7z m0-67.3H374.7c-13 0-23.7 10.6-23.7 23.7s10.6 23.7 23.7 23.7h142.6c13 0 23.7-10.6 23.7-23.7s-10.7-23.7-23.7-23.7zM855.2 707.9H169.4c-38.6 0-70-31.4-70-70v-500c0-38.6 31.4-70 70-70h685.7c38.6 0 70 31.4 70 70v500c0.1 38.6-31.3 70-69.9 70z m30-570c0-16.5-13.5-30-30-30H169.4c-16.5 0-30 13.5-30 30V497.8h745.7v-359.9z m0 379.9H139.5V637.9c0 16.5 13.5 30 30 30h685.7c16.5 0 30-13.5 30-30v-120.1zM459.9 271.4l-114.3 45.3 114.3 43.7v46.5L296.1 336v-39.5l163.8-71.2zM568.7 441.2h-34.4L475.1 194h33.8zM747.9 335.7l-164 70.9v-45.8l114.4-44.5-114.4-45v-46.2l164 71.4z"  horiz-adv-x="1024" />

    
    <glyph glyph-name="jiemiancaokong" unicode="&#58971;" d="M594.7 95.6H272.4c-10.7 0-19.4-8.7-19.4-19.4s8.7-19.4 19.4-19.4h322.3c10.7 0 19.4 8.7 19.4 19.4 0 10.8-8.7 19.4-19.4 19.4zM912.9 124.6v-39H968c-8.1 22.7-29.7 39-55.1 39zM815.6 220.1V660.8c0 16.1-13.1 29.1-29.1 29.1H80.6c-16.1 0-29.1-13.1-29.1-29.1v-440.7c0-16.1 13.1-29.1 29.1-29.1h705.9c16.1-0.1 29.1 13 29.1 29.1z m-43.9 42c0-16-13.1-29.1-29.1-29.1h-618c-16 0-29.1 13.1-29.1 29.1V618.7c0 16 13.1 29.1 29.1 29.1h618c16 0 29.1-13.1 29.1-29.1v-356.6zM742.6 647.8h-618c-16 0-29.1-13.1-29.1-29.1v-356.6c0-16 13.1-29.1 29.1-29.1h618c16 0 29.1 13.1 29.1 29.1V618.7c0 16-13.1 29.1-29.1 29.1z m-523.3-32.2c0 1.6 1.3 2.8 2.8 2.8h61.3c1.6 0 2.8-1.3 2.8-2.8v-17.5c0-1.6-1.3-2.8-2.8-2.8h-61.3c-1.6 0-2.8 1.3-2.8 2.8v17.5z m-30.3 3.5c6.6 0 11.9-5.3 11.9-11.9s-5.3-11.9-11.9-11.9c-6.6 0-11.9 5.3-11.9 11.9s5.4 11.9 11.9 11.9z m-39 0c6.6 0 11.9-5.3 11.9-11.9s-5.3-11.9-11.9-11.9c-6.6 0-11.9 5.3-11.9 11.9s5.3 11.9 11.9 11.9z m237.3-181.7c0-67.8-55.2-123-123-123s-123 55.2-123 123 55.2 123 123 123h9.7v-113.3h113.3v-9.7z m-90.1 38.7v94.7c52.3 0 94.7-42.4 94.7-94.7h-94.7z m373.6-148.9H530.1c-5.4 0-9.7 4.3-9.7 9.7 0 5.4 4.3 9.7 9.7 9.7h140.7c5.4 0 9.7-4.3 9.7-9.7 0-5.3-4.3-9.7-9.7-9.7z m0 73.3H525.2c-5.4 0-9.7 4.3-9.7 9.7s4.3 9.7 9.7 9.7h145.6c5.4 0 9.7-4.3 9.7-9.7s-4.3-9.7-9.7-9.7z m0 73.4H461.2c-5.4 0-9.7 4.3-9.7 9.7s4.3 9.7 9.7 9.7h209.7c5.4 0 9.7-4.3 9.7-9.7s-4.4-9.7-9.8-9.7z m0 73.3H461.2c-5.4 0-9.7 4.3-9.7 9.7s4.3 9.7 9.7 9.7h209.7c5.4 0 9.7-4.3 9.7-9.7s-4.4-9.7-9.8-9.7zM254.6 540.5c-52.6-4.9-93.9-49.3-93.9-103.1 0-57.1 46.5-103.6 103.6-103.6 53.8 0 98.2 41.3 103.1 93.9H254.6V540.5zM274 560.4h-9.7c-67.8 0-123-55.2-123-123s55.2-123 123-123 123 55.2 123 123v9.7H274V560.4z m93.4-132.8c-4.9-52.6-49.3-93.9-103.1-93.9-57.1 0-103.6 46.5-103.6 103.6 0 53.8 41.3 98.2 93.9 103.1v-112.8h112.8zM297.2 570.8v-94.7h94.7c0 52.3-42.4 94.7-94.7 94.7zM150 607.2m-11.9 0a11.9 11.9 0 1 1 23.8 0 11.9 11.9 0 1 1-23.8 0ZM189 607.2m-11.9 0a11.9 11.9 0 1 1 23.8 0 11.9 11.9 0 1 1-23.8 0ZM222.1 595.3h61.3c1.6 0 2.8 1.3 2.8 2.8v17.5c0 1.6-1.3 2.8-2.8 2.8h-61.3c-1.6 0-2.8-1.3-2.8-2.8v-17.5c0-1.6 1.3-2.8 2.8-2.8zM912.9 163.5c-47 0-86.3-33.5-95.3-77.8H701.9c-11.7 0-20.2 2.3-23.2 6.3-2 2.7-2 7-2 9v51.1h109.9c37.5 0 67.9 30.5 67.9 67.9V660.8c0 37.5-30.5 67.9-67.9 67.9h-706c-37.5 0-67.9-30.5-67.9-67.9v-440.7c0-37.5 30.5-67.9 67.9-67.9h557.2V101c0-4.8 0-19.3 9.9-32.4 10.9-14.4 29.1-21.7 54.2-21.7h308.2v19.4c0 53.6-43.6 97.2-97.2 97.2zM80.6 190.9c-16.1 0-29.1 13.1-29.1 29.1V660.8c0 16.1 13.1 29.1 29.1 29.1h705.9c16.1 0 29.1-13.1 29.1-29.1v-440.7c0-16.1-13.1-29.1-29.1-29.1H80.6z m832.3-105.2h-55.1c8 22.7 29.7 39 55.1 39s47.1-16.3 55.1-39h-55.1zM670.8 566.6H461.2c-5.4 0-9.7-4.3-9.7-9.7s4.3-9.7 9.7-9.7h209.7c5.4 0 9.7 4.3 9.7 9.7s-4.4 9.7-9.8 9.7zM670.8 493.3H461.2c-5.4 0-9.7-4.3-9.7-9.7s4.3-9.7 9.7-9.7h209.7c5.4 0 9.7 4.3 9.7 9.7s-4.4 9.7-9.8 9.7zM670.8 419.9H525.2c-5.4 0-9.7-4.3-9.7-9.7s4.3-9.7 9.7-9.7h145.6c5.4 0 9.7 4.3 9.7 9.7s-4.3 9.7-9.7 9.7zM670.8 346.6H530.1c-5.4 0-9.7-4.3-9.7-9.7 0-5.4 4.3-9.7 9.7-9.7h140.7c5.4 0 9.7 4.3 9.7 9.7 0 5.4-4.3 9.7-9.7 9.7z"  horiz-adv-x="1024" />

    
    <glyph glyph-name="duozhongfangyu" unicode="&#58965;" d="M509.8 756.3l190.5-109.6 0.2-196.5 173.2-99.7 0.2-219.8-190.2-110.1-172.4 99.2-171.5-99.2-190.5 109.6-0.2 219.9 170.7 98.8-0.3 197.3zM520 368.5V531l-10-5.8-10 5.8v-162.2l10.3-5.9zM339.5 229.1l-10 5.7v-162.1l10.3-5.9 9.7 5.6V234.8zM693.4 72.4V234.8l-2-1.1c-1.6-0.9-3.3-1.3-5-1.3-3.5 0-6.8 1.8-8.7 5-2.5 4.3-1.4 9.6 2.2 12.7-3.8-1.4-6.6-5.1-6.6-9.4v-167.9l10.3-5.9 9.8 5.5zM825.1 332.3l8.4-4.8c-1.9 3.1-5.1 4.8-8.4 4.8zM833.7 327.1v-9.5c1.6 2.9 1.7 6.5 0 9.5zM656.7 267.5l-8.7 5c-4.8 2.8-10.9 1.1-13.7-3.7-2.8-4.8-1.1-10.9 3.7-13.7l8.7-5c1.6-0.9 3.3-1.3 5-1.3 3.5 0 6.8 1.8 8.7 5 2.7 4.8 1.1 10.9-3.7 13.7zM613.3 292.4l-8.7 5c-4.8 2.8-10.9 1.1-13.7-3.7-2.8-4.8-1.1-10.9 3.7-13.7l8.7-5c1.6-0.9 3.3-1.3 5-1.3 3.5 0 6.8 1.8 8.7 5 2.8 4.8 1.1 10.9-3.7 13.7zM833.6 327.3c0 0.1-0.1 0.1-0.1 0.2l-8.4 4.8c-1.8 0-3.5-0.4-5.2-1.3l-8.7-5c-4.8-2.8-6.4-8.9-3.7-13.7 1.9-3.2 5.2-5 8.7-5 1.7 0 3.4 0.4 5 1.3l8.7 5c1.7 1 2.9 2.3 3.8 3.9V327c0 0.2-0.1 0.3-0.1 0.3zM690 256l-8.7-5c-0.5-0.3-1-0.6-1.4-1-3.7-3.1-4.7-8.4-2.2-12.7 1.9-3.2 5.2-5 8.7-5 1.7 0 3.4 0.4 5 1.3l2 1.1 6.7 3.9c4.8 2.8 6.4 8.9 3.7 13.7-2.9 4.8-9 6.5-13.8 3.7zM570 317.3l-8.7 5c-4.8 2.8-10.9 1.1-13.7-3.7-2.8-4.8-1.1-10.9 3.7-13.7l8.7-5c1.6-0.9 3.3-1.3 5-1.3 3.5 0 6.8 1.8 8.7 5 2.7 4.8 1 11-3.7 13.7zM776.6 306l-8.7-5c-4.8-2.8-6.4-8.9-3.7-13.7 1.9-3.2 5.2-5 8.7-5 1.7 0 3.4 0.4 5 1.3l8.7 5c4.8 2.8 6.4 8.9 3.7 13.7-2.8 4.8-8.9 6.5-13.7 3.7zM733.3 281l-8.7-5c-4.8-2.8-6.4-8.9-3.7-13.7 1.9-3.2 5.2-5 8.7-5 1.7 0 3.4 0.4 5 1.3l8.7 5c4.8 2.8 6.4 8.9 3.7 13.7-2.8 4.8-8.9 6.5-13.7 3.7zM873.7 350.5l-173.2 99.7-0.2 196.5-190.5 109.6-190.3-110.1 0.2-197.3L149 350l0.3-219.8 190.5-109.7 171.4 99.3 172.4-99.3 190.2 110.1-0.1 219.9zM509.8 710.1l140.4-80.8-140.3-81L369.5 629l140.3 81.1zM339.3 414l140.4-80.8-140.3-81L199 332.9 339.3 414z m10.2-341.6l-9.7-5.6-10.3 5.9-140.2 80.7-0.2 162.1 140.4-80.7 10-5.8 10 5.8 140.4 81 0.2-162.1-140.6-81.3z m160.8 290.5l-10.3 5.9-140.2 80.7-0.2 162.1L500 531l10-5.8 10 5.8 140.4 81 0.2-162.1L520 368.5l-9.7-5.6z m323.6-209.1l-140.6-81.4-9.7-5.6-10.3 5.9-140.2 80.7L533 327l150.3 87 141.9-81.7c3.3-0.1 6.6-1.8 8.4-4.8l0.2-0.1v-0.3c1.7-3.1 1.6-6.7 0-9.5l0.1-163.8z"  horiz-adv-x="1024" />

    
    <glyph glyph-name="quanmianfugai" unicode="&#58967;" d="M512.5 759.4l-389.4-283 148.7-457.8h481.4l148.7 457.8zM712.2 149.3c0 20.9-17 37.8-37.8 37.8-10.7 0-20.4-4.5-27.3-11.6l43.5-60.3c12.7 6.1 21.6 19.1 21.6 34.1zM636.5 149.3c0-18.8 13.8-34.4 31.7-37.3L637 155.3c-0.3-2-0.5-4-0.5-6zM690.6 115.2l-43.5 60.3c-5.2-5.4-8.8-12.4-10.1-20.2l31.2-43.3c2-0.3 4-0.5 6.1-0.5 5.9 0 11.4 1.3 16.3 3.7zM536.9 173c-2.3 5-8.3 7.2-13.3 4.9s-7.2-8.3-4.9-13.3c1.5-3.3 3.2-6.5 4.9-9.6 1.8-3.3 5.2-5.1 8.7-5.1 1.7 0 3.3 0.4 4.9 1.3 4.8 2.7 6.5 8.8 3.8 13.6-1.4 2.6-2.9 5.4-4.1 8.2zM526.7 208.3c-0.3 3-0.5 5.8-0.5 8.4v0.3c0 5.5-4.4 10-9.9 10.1h-0.1c-5.5 0-10-4.4-10-9.9v-0.5c0-3.4 0.2-7 0.6-10.7 0.6-5.1 4.9-8.9 9.9-8.9 0.4 0 0.8 0 1.1 0.1 5.6 0.6 9.5 5.6 8.9 11.1zM571.1 131.6c-2.5 1.6-4.9 3.4-7.2 5.3-4.3 3.5-10.6 2.9-14.1-1.4s-2.9-10.6 1.4-14.1c2.9-2.4 5.9-4.6 8.9-6.6 1.7-1.1 3.6-1.6 5.5-1.6 3.3 0 6.5 1.6 8.4 4.5 3 4.7 1.7 10.9-2.9 13.9zM613.1 118.9c-3 0.1-6.1 0.3-9 0.7-5.5 0.7-10.5-3.2-11.2-8.6-0.7-5.5 3.2-10.5 8.6-11.2 3.6-0.5 7.2-0.7 10.9-0.8h0.3c5.4 0 9.8 4.3 10 9.7 0.2 5.5-4.1 10.1-9.6 10.2zM542.7 270c-4.7 2.9-10.9 1.3-13.7-3.4-1.8-3-3.5-5.8-5.2-8.4-2.9-4.7-1.5-10.9 3.2-13.8 1.6-1 3.5-1.5 5.3-1.5 3.3 0 6.6 1.7 8.5 4.7 1.8 2.9 3.6 5.8 5.3 8.7 2.9 4.7 1.3 10.8-3.4 13.7zM573.1 354.4c-1.2-3-2.4-6.1-3.6-9.1-2.1-5.1 0.3-11 5.4-13.1 1.3-0.5 2.6-0.8 3.8-0.8 3.9 0 7.6 2.3 9.2 6.2 1.3 3.2 2.6 6.4 3.8 9.5 2 5.1-0.6 10.9-5.7 12.9-1.5 0.6-3 0.8-4.5 0.6l-4.2-1.4c-1.8-0.9-3.4-2.6-4.2-4.8zM512.5 759.4l-389.4-283 148.7-457.8h481.3l148.7 457.8-389.3 283z m10-56.8L845 468.3l-43.2-14.2L522.5 657v45.6z m0-70.3l255.8-185.9-173.1-56.8c0.6 2.3 1.1 4.7 1.6 7 1.1 5.4-2.3 10.7-7.7 11.8s-10.7-2.3-11.8-7.7c-0.6-3-1.4-6.2-2.2-9.4-0.7-2.8-0.1-5.7 1.3-7.9L536.6 367c-3.5 4.9-8.4 8.6-14.1 10.7V632.3zM173.9 449.5l72.8-23.4c1.3 6.7 3.4 13 6.4 19l-72.9 23.4 322.3 234.2v-165.2c-0.6 0.1-1.1 0.2-1.7 0.2-3.6 0.2-7.2 0.2-10.8 0.1-5.5-0.2-9.9-4.8-9.7-10.3 0.2-5.5 4.7-9.9 10.3-9.7 3.1 0.1 6.2 0.1 9.2-0.1h0.5c0.8 0 1.5 0.1 2.2 0.3v-140.2c-5-1.8-9.3-4.8-12.6-8.8l-98.7 31.7c-1.1-6.7-3.1-13.1-5.9-19.1l97.6-31.4v-0.2c0-7.2 2.6-13.8 6.9-18.9l-192.6-261-123.3 379.4z m139.7-390.9l193.6 262.2c1.7-0.3 3.5-0.5 5.3-0.5 1.7 0 3.4 0.2 5.1 0.4l105.1-145.6c-3.9-7.8-6.1-16.6-6.1-25.9 0-31.9 25.9-57.8 57.8-57.8 2.8 0 5.6 0.2 8.3 0.6l24.1-33.5H313.6z m322.9 90.7c0 2 0.2 4 0.5 6 1.2 7.8 4.9 14.8 10.1 20.2 6.9 7.2 16.6 11.6 27.3 11.6 20.9 0 37.8-17 37.8-37.8 0-15-8.8-28-21.6-34.1-4.9-2.4-10.4-3.7-16.3-3.7-2.1 0-4.1 0.2-6.1 0.5-17.9 2.9-31.7 18.5-31.7 37.3z m89.9-83.7l-23.9 33.2c17.7 9.9 29.7 28.8 29.7 50.5 0 31.9-25.9 57.8-57.8 57.8-15.1 0-28.8-5.8-39.1-15.3l-70.5 97.7c0.5 0.6 1 1.3 1.4 2 1.6 3 3.2 6.1 4.7 9 2.5 4.9 0.5 10.9-4.4 13.4s-10.9 0.5-13.4-4.4c-0.4-0.7-0.8-1.5-1.1-2.2l-17 23.5c4 4.7 6.5 10.6 7 17l35.3 11.6c1.3 0.8 2.7 1.3 4.2 1.4L851 449.3 726.4 65.6zM360.6 474l-0.8-0.8c5.6-3.8 10.6-8.3 14.9-13.4l0.3 0.3c3.8 4 3.7 10.3-0.3 14.1-3.9 3.9-10.2 3.8-14.1-0.2zM590.5 447.2c0.3-2.9 0.5-6 0.6-9.1 0.1-5.4 4.6-9.7 10-9.7h0.3c5.5 0.1 9.9 4.7 9.7 10.3-0.1 3.7-0.3 7.3-0.7 10.8-0.6 5.5-5.6 9.4-11 8.8-5.6-0.6-9.5-5.6-8.9-11.1zM398 483.3c2 0 4.1 0.6 5.9 1.9 2.6 1.9 5.2 3.7 7.9 5.5 4.6 3 5.9 9.2 2.8 13.9-3 4.6-9.3 5.9-13.9 2.8-2.9-1.9-5.8-3.9-8.6-6-4.5-3.3-5.5-9.5-2.2-14 2-2.7 5.1-4.1 8.1-4.1zM544.6 506.9c1.3-0.6 2.7-0.9 4-0.9 3.8 0 7.5 2.2 9.2 6 2.2 5.1 0 11-5.1 13.2-3.3 1.4-6.6 2.8-9.9 4-5.2 1.9-10.9-0.8-12.8-6-1.9-5.2 0.8-10.9 6-12.8 2.8-1.1 5.7-2.3 8.6-3.5zM579.2 480.2c1.9-2.9 5.1-4.5 8.3-4.5 1.9 0 3.8 0.5 5.5 1.7 4.6 3.1 5.8 9.3 2.8 13.9-2.1 3.1-4.4 6.2-7 9-3.7 4.1-10 4.5-14.1 0.8s-4.5-10-0.8-14.1c1.9-2.1 3.7-4.4 5.3-6.8zM441.6 507.5c1.2 0 2.4 0.2 3.6 0.7 2.9 1.1 5.9 2.2 8.8 3.2 5.3 1.7 8.1 7.3 6.5 12.6-1.7 5.3-7.3 8.2-12.6 6.5-3.3-1.1-6.7-2.3-10-3.6-5.1-2-7.7-7.8-5.7-13 1.7-4 5.4-6.4 9.4-6.4zM577.3 359.4l4.2 1.4c-1.5-0.2-2.9-0.6-4.2-1.4zM372.2 412.4c0 29.4-24 53.4-53.4 53.4-19.8 0-37.1-10.9-46.4-27l99.5-32c0.2 1.9 0.3 3.7 0.3 5.6zM265.4 412.4c0-29.4 24-53.4 53.4-53.4 20.5 0 38.4 11.7 47.3 28.7l-100.2 32.2c-0.3-2.4-0.5-4.9-0.5-7.5zM366.1 387.7c3.1 5.8 5.1 12.3 5.8 19.1l-99.5 32c-3.3-5.7-5.5-12.1-6.5-18.9l100.2-32.2zM374.7 459.8c-4.3 5.1-9.3 9.6-14.9 13.4-11.7 8-25.9 12.6-41.1 12.6-28.7 0-53.7-16.6-65.7-40.7-3-5.9-5.1-12.3-6.4-19-0.8-4.4-1.3-9-1.3-13.7 0-40.5 32.9-73.4 73.4-73.4 29.4 0 54.9 17.4 66.6 42.5 2.8 6 4.8 12.4 5.9 19.1 0.6 3.8 1 7.8 1 11.8 0 18.1-6.6 34.6-17.5 47.4z m-2.8-52.9c-0.7-6.8-2.7-13.3-5.8-19.1-8.9-17-26.8-28.7-47.3-28.7-29.4 0-53.4 24-53.4 53.4 0 2.6 0.2 5.1 0.5 7.5 1 6.8 3.2 13.2 6.5 18.9 9.2 16.1 26.5 27 46.4 27 29.4 0 53.4-24 53.4-53.4 0-2-0.1-3.8-0.3-5.6z"  horiz-adv-x="1024" />

    
    <glyph glyph-name="yunduanbeifen" unicode="&#58968;" d="M464.8 486.3C431.9 531 378.9 560 319.2 560c-99.8 0-180.7-80.9-180.7-180.7s80.9-180.7 180.7-180.7h297.3c149.3 0 270.3 121 270.3 270.3s-121 270.3-270.3 270.3c-118.7 0-219.6-76.5-255.9-183M823.5 129.5c0 3.2 0.5 6.3 1.5 9.2H631V478.6c0 5.5-4.5 10-10 10s-10-4.5-10-10v-359.9h214.6c-1.3 3.3-2.1 7-2.1 10.8zM230.2 104.3c-3.5 8.7-12 14.9-22 14.9-13.1 0-23.7-10.6-23.7-23.7s10.6-23.7 23.7-23.7c9.5 0 17.7 5.6 21.5 13.7 1.4 3 2.2 6.4 2.2 10 0 3.1-0.6 6.1-1.7 8.8zM852.2 158.1c-12.6 0-23.3-8.1-27.1-19.4-1-2.9-1.5-6-1.5-9.2 0-3.8 0.7-7.4 2.1-10.8 4.3-10.5 14.5-17.9 26.6-17.9 15.8 0 28.7 12.8 28.7 28.7-0.1 15.8-13 28.6-28.8 28.6zM700 638.3c2.1 5.1-0.3 11-5.4 13.1-78 32.3-135.3 15.6-169.6-4.1-37.2-21.3-55.7-50.2-56.4-51.5-2.9-4.7-1.5-10.8 3.1-13.8 1.7-1 3.5-1.5 5.3-1.5 3.3 0 6.6 1.6 8.5 4.6 0.2 0.3 17.1 26.4 50.2 45.2 44.1 24.9 94.9 25.8 151.2 2.5 5.1-2 11 0.4 13.1 5.5zM852.2 76.2c-12.4 0-22.9-7.8-26.9-18.8H534.5V178.7H611v40h-76.5V358.1c0 5.5-4.5 10-10 10s-10-4.5-10-10v-139.4h-66.9V358.1c0 5.5-4.5 10-10 10s-10-4.5-10-10v-139.4H319.2c-88.6 0-160.7 72.1-160.7 160.7s72.1 160.7 160.7 160.7c50.9 0 99.3-24.5 129.5-65.6 6.5-8.9 19.1-10.8 28-4.3 8.9 6.5 10.8 19.1 4.3 28-18.3 24.8-42.4 45.4-69.7 59.5-7.9 4.1-16.1 7.7-24.5 10.7 39.3 91 129.3 150.8 229.8 150.8 138 0 250.3-112.3 250.3-250.3 0-133.1-104.4-242.2-235.7-249.8V179c72.1 3.5 139.3 33.3 190.7 84.7 54.8 54.8 85 127.7 85 205.2s-30.2 150.4-85 205.2c-54.8 54.8-127.7 85-205.2 85-118.8 0-224.9-72.1-269.1-181.2-9.3 1.3-18.8 2-28.2 2-110.7 0-200.7-90-200.7-200.7s90-200.7 200.7-200.7h108.4v-73.9H250.9c-4.3 19.6-21.8 34.4-42.7 34.4-24.1 0-43.7-19.6-43.7-43.7s19.6-43.7 43.7-43.7c20.4 0 37.6 14.1 42.4 33h197v93.9h66.9v-141.3h310.9c4.1-10.8 14.6-18.5 26.8-18.5 15.8 0 28.7 12.8 28.7 28.7 0 16-12.9 28.8-28.7 28.8z m-622.5 9.3c-3.8-8.1-12-13.7-21.5-13.7-13.1 0-23.7 10.6-23.7 23.7s10.6 23.7 23.7 23.7c9.9 0 18.5-6.2 22-14.9 1.1-2.7 1.7-5.7 1.7-8.8 0-3.6-0.8-7-2.2-10z"  horiz-adv-x="1024" />

    
    <glyph glyph-name="yemianfenxi" unicode="&#58972;" d="M670.1 38.3H206.2c-27.6 0-50 22.4-50 50V564.9c0 27.6 22.4 50 50 50H670c27.6 0 50-22.4 50-50v-476.6c0.1-27.7-22.3-50-49.9-50zM669 596.7H205.1c-16.5 0-30-13.5-30-30v-75.9H699v75.9c0 16.5-13.5 30-30 30zM859 736.7c-15.4 12.3-35.5 19-56.7 19H363.6c-21.2 0-41.4-6.8-56.7-19-16.4-13.1-25.9-31.7-25.9-51v-49h-75.9c-38.6 0-70-31.4-70-70v-476.6c0-38.6 31.4-70 70-70H669c38.6 0 70 31.4 70 70v49h63.3c21.2 0 41.4 6.8 56.7 19 16.4 13.1 25.9 31.7 25.9 51V685.7c0 19.3-9.5 37.9-25.9 51zM699 490.8H175.1v75.9c0 16.5 13.5 30 30 30H669c16.5 0 30-13.5 30-30v-75.9z m0-400.7c0-16.5-13.5-30-30-30H205.1c-16.5 0-30 13.5-30 30V470.8H699v-380.7z m145.9 119c0-16.3-19.5-30-42.6-30H739V566.7c0 38.6-31.4 70-70 70H321v49c0 16.3 19.5 30 42.6 30h438.7c23.1 0 42.6-13.7 42.6-30v-476.6zM537.3 526.8H393.1c-9.9 0-17.9 8-17.9 17.9 0 9.9 8 17.9 17.9 17.9h144.2c9.9 0 17.9-8 17.9-17.9 0-9.9-8-17.9-17.9-17.9zM320.4 93.7h-82.1c-16.6 0-30 13.4-30 30V441.6h112.1v-347.9zM636.2 93.7H355V441.6h311.3v-317.9c-0.1-16.6-13.5-30-30.1-30zM230.2 544.7m-18.7 0a18.7 18.7 0 1 1 37.4 0 18.7 18.7 0 1 1-37.4 0ZM290.6 544.7m-18.7 0a18.7 18.7 0 1 1 37.4 0 18.7 18.7 0 1 1-37.4 0ZM225.3 146.8c-2.4 0-4.7 0.8-6.6 2.5-4.1 3.7-4.5 10-0.8 14.1l120.8 136 121-34.4 191.7 132.3c4.5 3.1 10.8 2 13.9-2.5 3.1-4.5 2-10.8-2.5-13.9L463.2 243.3l-118 33.5-112.5-126.6c-1.9-2.2-4.7-3.4-7.4-3.4zM469.9 155.7L338.6 329.3l-123.2-51.8c-5.1-2.1-11 0.2-13.1 5.3-2.1 5.1 0.2 11 5.3 13.1l137.5 57.9 124-164.1L638 432.4c3.2 4.5 9.4 5.7 13.9 2.5s5.7-9.4 2.5-13.9L469.9 155.7z"  horiz-adv-x="1024" />

    
    <glyph glyph-name="yidongAPP" unicode="&#58969;" d="M433.2 79.2c-14.2 0-25.8 11.6-25.8 25.8 0 14.2 11.6 25.8 25.8 25.8 14.2 0 25.8-11.6 25.8-25.8 0.1-14.2-11.6-25.8-25.8-25.8zM600.5 159.3c0-5.1-4.2-9.3-9.3-9.3h-316c-5.1 0-9.3 4.2-9.3 9.3V635.6c0 5.1 4.2 9.3 9.3 9.3h315.9c5.1 0 9.3-4.2 9.3-9.3v-476.3h0.1zM301.8 541.8c-13.6 0-24.7-11.1-24.7-24.7s11.1-24.7 24.7-24.7 24.7 11.1 24.7 24.7-11.1 24.7-24.7 24.7zM804 318.2c-29.4 0-53.4-24-53.4-53.4s24-53.4 53.4-53.4 53.4 24 53.4 53.4-24 53.4-53.4 53.4zM804 338.2c-40.5 0-73.4-32.9-73.4-73.4s32.9-73.4 73.4-73.4 73.4 32.9 73.4 73.4-32.9 73.4-73.4 73.4z m-53.4-73.4c0 29.4 24 53.4 53.4 53.4s53.4-24 53.4-53.4-24-53.4-53.4-53.4c-29.5 0-53.4 24-53.4 53.4zM365.7 350c-11.4 0-20.6-9.2-20.6-20.6s9.2-20.6 20.6-20.6 20.6 9.2 20.6 20.6S377 350 365.7 350zM128.3 474.7c-13.6 0-24.7-11.1-24.7-24.7s11.1-24.7 24.7-24.7S153 436.4 153 450s-11.1 24.7-24.7 24.7zM191.4 481.4c-1.8 5.2-7.4 8-12.7 6.3l-18.7-6.3c-8.1 8.2-19.3 13.3-31.8 13.3-24.6 0-44.7-20-44.7-44.7s20-44.7 44.7-44.7 44.7 20 44.7 44.7c0 4.8-0.8 9.5-2.2 13.8l14.4 4.8c5.2 1.9 8 7.5 6.3 12.8z m-63.1-56c-13.6 0-24.7 11.1-24.7 24.7s11.1 24.7 24.7 24.7 24.7-11.1 24.7-24.7-11.1-24.7-24.7-24.7zM329.4 468.6l-3.5 11c12.3 8 20.5 21.8 20.5 37.5 0 24.6-20 44.7-44.7 44.7s-44.7-20-44.7-44.7 20-44.7 44.7-44.7c1.8 0 3.6 0.1 5.3 0.3l3.2-10.2c1.3-4.3 5.3-7 9.5-7 1 0 2 0.2 3 0.5 5.5 1.7 8.4 7.4 6.7 12.6z m-18.5 25.6c-0.4-0.1-0.8-0.3-1.1-0.4-2.5-0.9-5.2-1.4-8-1.4-13.6 0-24.7 11.1-24.7 24.7s11.1 24.7 24.7 24.7 24.7-11.1 24.7-24.7c0-10.3-6.5-19.2-15.6-22.9zM338 398.4c1 0 2 0.2 3 0.5 5.3 1.7 8.2 7.3 6.5 12.5l-6 19.1c-1.7 5.3-7.3 8.2-12.5 6.5-5.3-1.7-8.2-7.3-6.5-12.5l6-19.1c1.3-4.3 5.2-7 9.5-7zM438 390.8l-8-6.1c-4.4-3.3-5.3-9.6-1.9-14 2-2.6 5-3.9 8-3.9 2.1 0 4.2 0.7 6 2l8 6.1c4.4 3.3 5.3 9.6 1.9 14-3.3 4.4-9.6 5.2-14 1.9zM531.6 449.4c-3.3 4.4-9.6 5.3-14 1.9l-8-6.1c-4.4-3.3-5.3-9.6-1.9-14 2-2.6 5-3.9 8-3.9 2.1 0 4.2 0.7 6 2l8 6.1c4.4 3.3 5.3 9.6 1.9 14zM477.8 421.1l-8-6.1c-4.4-3.3-5.3-9.6-1.9-14 2-2.6 5-3.9 8-3.9 2.1 0 4.2 0.7 6 2l8 6.1c4.4 3.3 5.3 9.6 1.9 14-3.3 4.3-9.6 5.2-14 1.9zM398.2 360.5l-3.6-2.7c-7.4 7.5-17.6 12.2-28.9 12.2-1.7 0-3.3-0.1-4.9-0.3l-1.1 3.6c-1.7 5.3-7.3 8.2-12.6 6.5-5.3-1.7-8.2-7.3-6.5-12.6l1.5-4.9c-10.3-7.4-17-19.4-17-33 0-22.4 18.2-40.6 40.6-40.6s40.6 18.2 40.6 40.6c0 3.8-0.5 7.5-1.5 11l5.5 4.2c4.4 3.3 5.3 9.6 1.9 14-3.3 4.5-9.6 5.4-14 2z m-53.1-31.1c0 11.4 9.2 20.6 20.6 20.6s20.6-9.2 20.6-20.6-9.2-20.6-20.6-20.6-20.6 9.2-20.6 20.6zM863.8 481.2H666.9v200c0 41.8-34 75.8-75.8 75.8H275.2c-41.8 0-75.8-34-75.8-75.8v-585.4c0-41.8 34-75.8 75.8-75.8h588.5c41.8 0 75.8 33.6 75.8 74.9V406.2c0.1 41.4-33.9 75-75.7 75zM591.2 60h-316c-19.7 0-35.8 16-35.8 35.8V487l2.5 0.8c5.2 1.8 8 7.4 6.3 12.7-1.3 3.9-4.9 6.5-8.7 6.8V681.1c0 19.7 16 35.8 35.8 35.8h315.9c19.7 0 35.8-16 35.8-35.8V461c-1.9-0.2-3.9-1-5.5-2.3-4.2-3.6-4.7-9.9-1.1-14.1l6.5-7.6 0.1-0.1v-341.2c-0.1-19.7-16.1-35.7-35.8-35.7z m308.4 34.9c0-19.3-16-34.9-35.8-34.9H658c5.7 10.7 9 22.8 9 35.8V395.5c2.3 0 4.6 0.8 6.4 2.4 4.2 3.6 4.7 9.9 1.1 14.1l-6.5 7.6c-0.3 0.4-0.7 0.7-1.1 1.1v20.5h196.9c19.7 0 35.8-15.7 35.8-34.9v-311.4zM732.9 343.5c-3.6 4.2-9.9 4.7-14.1 1.1-4.2-3.6-4.7-9.9-1.1-14.1l6.5-7.6c2-2.3 4.8-3.5 7.6-3.5 2.3 0 4.6 0.8 6.5 2.4 4.2 3.6 4.7 9.9 1.1 14.1l-6.5 7.6zM700.4 381.5c-3.6 4.2-9.9 4.7-14.1 1.1s-4.7-9.9-1.1-14.1l6.5-7.6c2-2.3 4.8-3.5 7.6-3.5 2.3 0 4.6 0.8 6.5 2.4 4.2 3.6 4.7 9.9 1.1 14.1l-6.5 7.6zM493.7 673h-121c-5.5 0-10 4.5-10 10s4.5 10 10 10h121c5.5 0 10-4.5 10-10s-4.5-10-10-10zM597.3 575.9c-33.6 0-60.9-27.3-60.9-60.9s27.3-60.9 60.9-60.9 60.9 27.3 60.9 60.9-27.3 60.9-60.9 60.9zM597.3 595.9c-44.6 0-80.9-36.3-80.9-80.9 0-44.6 36.3-80.9 80.9-80.9 44.6 0 80.9 36.3 80.9 80.9 0 44.6-36.3 80.9-80.9 80.9zM536.5 515c0 33.6 27.3 60.9 60.9 60.9s60.9-27.3 60.9-60.9-27.3-60.9-60.9-60.9-60.9 27.3-60.9 60.9z"  horiz-adv-x="1024" />

    
    <glyph glyph-name="zhujijilu" unicode="&#58973;" d="M686.8 660.1a28.7 27 90 1 1 54 0 28.7 27 90 1 1-54 0ZM686.8 434.7a28.7 27 90 1 1 54 0 28.7 27 90 1 1-54 0ZM774.3 715.7H180.2c-16.5 0-30-13.5-30-30v-51.3c0-16.5 13.5-30 30-30h594.1c16.5 0 30 13.5 30 30v51.3c0 16.6-13.5 30-30 30z m-327.8-65.6H207.1c-5.5 0-10 4.5-10 10s4.5 10 10 10h239.4c5.5 0 10-4.5 10-10s-4.5-10-10-10z m267.3-18.8c-14.9 0-27 12.9-27 28.7s12.1 28.7 27 28.7 27-12.9 27-28.7-12.1-28.7-27-28.7zM804.3 460.4c0 16.5-13.5 30-30 30H180.2c-16.5 0-30-13.5-30-30V409c0-16.5 13.5-30 30-30h394.7l32.7 20c5.9 3.6 12.7 5.6 19.7 5.7h0.7c6.4 0 12.9-1.6 18.6-4.5 6.1-3.1 11.3-7.7 15.1-13.3l5.4-7.9h48.8l4.3 8.4c2.4 4.7 5.7 8.8 9.9 12.1 3.9 3.2 8.4 5.5 13.3 6.9 3.6 1.1 7.4 1.6 11.1 1.6 6.4 0 12.8-1.6 18.5-4.5l25-12.8c3.9 5.1 6.2 11.4 6.2 18.3v51.4zM713.8 406c-14.9 0-27 12.9-27 28.7s12.1 28.7 27 28.7 27-12.9 27-28.7-12.1-28.7-27-28.7zM774.3 755.7H180.2c-38.6 0-70-31.4-70-70v-51.3c0-38.6 31.4-70 70-70h594.1c38.6 0 70 31.4 70 70v51.3c0 38.6-31.4 70-70 70z m30-121.3c0-16.5-13.5-30-30-30H180.2c-16.5 0-30 13.5-30 30v51.3c0 16.5 13.5 30 30 30h594.1c16.5 0 30-13.5 30-30v-51.3zM446.5 670.1H207.1c-5.5 0-10-4.5-10-10s4.5-10 10-10h239.4c5.5 0 10 4.5 10 10s-4.5 10-10 10zM504.5 164.9c-4 5.8-6.4 12.4-6.9 19.4l-3.5 47.3c-0.8 10.4 2.6 20.3 9.5 27.9 1.9 2.1 3.9 3.9 6.1 5.5H180.2c-16.5 0-30-13.5-30-30v-51.3c0-16.5 13.5-30 30-30h336.1c-4.7 2.9-8.7 6.7-11.8 11.2zM569.8 133.7c-3.1 4.6-5.9 9.4-8.5 14.3l-22.4-0.6h-1c-6.4 0-12.8 1.5-18.5 4.5-1.1 0.5-2.1 1.1-3.1 1.8H180.2c-16.5 0-30 13.5-30 30V235c0 16.5 13.5 30 30 30h329.5c1.9 1.4 4 2.6 6.2 3.6 4.8 2.2 10 3.4 15.4 3.5l21.3 0.6c0.4 1.1 0.8 2.1 1.2 3.2 1.7 4.2 3.5 8.4 5.6 12.3 2.5 4.9 5.4 9.8 8.6 14.6l-1.5 2.3H180.2c-38.6 0-70-31.4-70-70v-51.3c0-38.6 31.4-70 70-70h399.7l2 3.9c-4.4 5-8.4 10.4-12.1 16zM769.9 234.4c-3.2 9-8 17.2-14.4 24.4-2 2.2-4 4.2-6.2 6.2-4.8 4.2-10.1 7.9-15.9 10.9-8.4 4.3-17.4 7-26.7 8-9.6 1-19.1 0.2-28.3-2.5-4.7-1.4-9.1-3.2-13.3-5.5-3.9-2.1-7.7-4.6-11.1-7.5-1.3-1.1-2.5-2.2-3.7-3.4-5.1-5-9.3-10.7-12.6-17-4-7.9-6.4-16.3-7-25.2-0.7-9.2 0.6-18.4 3.7-27.4 3.2-9 8-17.2 14.4-24.4 6.2-7 13.7-12.7 22.1-17 0.2-0.1 0.4-0.2 0.7-0.3 8.3-4.1 17-6.7 26.1-7.7 9.6-1 19.1-0.2 28.3 2.5 4.5 1.3 8.7 3 12.7 5.1 4.2 2.2 8.1 4.8 11.7 7.8 6.8 5.7 12.3 12.5 16.3 20.4 4 7.9 6.4 16.3 7 25.2 0.6 9.2-0.6 18.4-3.8 27.4zM876.5 241.6c-0.1 2-1.6 3.9-3.6 5-1 0.5-2.1 0.8-3.2 0.8l-26.4-0.7-18.4-0.5-0.7 1.7-3.8 8.7c-1.6 3.8-3.4 7.4-5.4 11-5.8 10.4-13 20-21.5 28.6l-7.8 7.9-0.8 0.8L805 344c0.4 0.7 0.5 1.5 0.4 2.3-0.2 1.8-1.6 3.7-3.6 4.8l-44 22.6c-1 0.5-2.1 0.8-3.2 0.8-2 0-3.7-0.9-4.4-2.3l-17-33.1-3.2-6.1-12 1.9c-6.9 1.1-13.9 1.6-20.8 1.6-9.1 0-18.3-1-27.1-2.9l-11.1-2.4-5.3 7.8-19.8 29c-0.7 1-1.6 1.8-2.6 2.3-1 0.5-2.2 0.8-3.3 0.8-1.1 0-2.1-0.3-2.9-0.8l-40.5-24.8c-1-0.6-1.6-1.4-1.8-2.5-0.3-1.3 0-2.6 0.9-3.9l0.2-0.2 23.2-34 2.3-3.4-7.7-9.7c-4.1-5.2-7.7-10.6-10.8-16.1-0.6-1-1.1-2-1.6-3-1.3-2.5-2.5-5.2-3.6-7.9-1.8-4.3-3.3-8.7-4.6-13.3l-3.3-11.9-45.5-1.2c-1.5 0-2.8-0.6-3.7-1.5-0.7-0.8-1-1.8-1-2.9l3.5-47.3c0.1-2 1.6-3.9 3.6-5 1-0.5 2.1-0.8 3.2-0.8l44.7 1.2 4.5-10.4c2.7-6.3 6-12.3 9.7-18.1 4.6-7.1 9.9-13.8 15.8-20 0.5-0.5 1-1 1.4-1.5l8.6-8.6-5.1-9.9-15-29.3c-0.7-1.4-0.4-2.8-0.1-3.6 0.6-1.5 1.7-2.7 3.3-3.5l44-22.6c1-0.5 2.1-0.8 3.2-0.8 2 0 3.7 0.9 4.4 2.3l20.1 39.2 12-1.9c6.9-1.1 13.9-1.6 20.8-1.6 9.1 0 18.3 1 27.1 2.9l11.1 2.4 25.1-36.8c0.7-1 1.6-1.8 2.6-2.3 1-0.5 2.2-0.8 3.3-0.8 1.1 0 2.1 0.3 2.9 0.8l40.5 24.8c1 0.6 1.6 1.4 1.8 2.5 0.3 1.6-0.3 3-0.9 3.9l-20.9 30.7-4.7 7 7.2 9 0.5 0.6c4.9 6.1 9 12.5 12.4 19.1 2.3 4.4 4.3 9.2 6 14.1 0.8 2.3 1.6 4.7 2.2 7.1l3.4 11.9 14.4 0.4 31.1 0.8c1.5 0 2.8 0.6 3.7 1.5 0.7 0.8 1 1.8 1 2.9l-3.5 47.3zM661.3 135.3c-9.4 4.8-17.8 11-25 18.4-1.1 1.1-2.1 2.2-3.2 3.4-8.3 9.3-14.5 19.9-18.6 31.5-4.1 11.7-5.7 23.7-4.9 35.8 0.8 11.7 3.9 22.9 9.3 33.3 1.3 2.6 2.7 5 4.3 7.4 2.5 3.8 5.3 7.5 8.3 10.9 2.8 3.1 5.8 6 9 8.6 9.3 7.7 20 13.4 31.9 16.9 6.5 1.9 13.1 3.1 19.8 3.6 4.4 0.3 8.8 0.3 13.3 0l3.3-0.3c11.9-1.3 23.4-4.7 34.1-10.2 9.5-4.9 18-11.1 25.3-18.7 1-1 1.9-2 2.9-3.1 2.3-2.6 4.4-5.2 6.4-8 5.2-7.2 9.3-15.1 12.2-23.5 4.1-11.7 5.7-23.7 4.9-35.8-0.8-11.7-3.9-22.9-9.3-33.3-3.5-6.8-7.8-13-12.9-18.6-2.7-3-5.6-5.7-8.7-8.3-5.6-4.6-11.7-8.5-18.2-11.7-4.4-2.1-8.9-3.9-13.7-5.3-11.8-3.5-24.1-4.6-36.4-3.3-10.7 1.1-21 4-30.7 8.6-1.1 0.6-2.2 1.1-3.4 1.7zM913.5 196.8l-3.5 47.3c-0.5 6.9-2.9 13.6-6.9 19.4-3.8 5.5-9 10-14.9 13-5.7 2.9-12.1 4.5-18.5 4.5h-1l-22.4-0.6c-5.7 10.8-12.6 21-20.6 30.4l9.2 17.9c2.4 4.7 3.8 9.8 4.1 15.1 0.3 5-0.5 10-2.2 14.8-1.3 3.6-3.1 7-5.3 10.1 8.1 11.4 12.8 25.3 12.8 40.3v51.3c0 38.6-31.4 70-70 70H180.2c-38.6 0-70-31.4-70-70V409c0-38.6 31.4-70 70-70h369.1c0.1-1.4 0.3-2.7 0.6-4.1 1-5.2 3.1-10.1 6.1-14.5l10.5-15.4 1.5-2.3c-3.2-4.8-6.1-9.6-8.6-14.6-2-3.9-3.9-8.1-5.6-12.3-0.4-1.1-0.8-2.1-1.2-3.2l-21.3-0.6c-5.4-0.1-10.6-1.3-15.4-3.5-2.2-1-4.3-2.2-6.2-3.6-2.2-1.6-4.3-3.4-6.1-5.5-6.9-7.7-10.3-17.6-9.5-27.9l3.5-47.3c0.5-6.9 2.9-13.6 6.9-19.4 3.1-4.5 7.2-8.3 11.8-11.3 1-0.6 2-1.2 3.1-1.8 5.7-2.9 12.1-4.5 18.5-4.5h1l22.4 0.6c2.6-4.9 5.4-9.7 8.5-14.3 3.7-5.6 7.7-10.9 12.1-16.1l-2-3.9-7.2-14c-2.4-4.7-3.8-9.8-4.1-15.1-0.3-5 0.5-10 2.2-14.8 3.4-9.7 10.4-17.6 19.7-22.4l44-22.6c5.8-2.9 12.2-4.5 18.5-4.5 3.8 0 7.5 0.5 11.1 1.6 4.9 1.4 9.4 3.8 13.3 6.9 4.1 3.3 7.5 7.4 9.9 12.1l9.2 17.9c4.6-0.4 9.2-0.6 13.8-0.6 7.7 0 15.3 0.5 22.9 1.6l12.6-18.5c3.8-5.6 9-10.2 15.1-13.3 5.7-2.9 12.2-4.5 18.6-4.5h0.7c7 0.1 13.8 2.1 19.7 5.7l40.5 24.8c8.9 5.4 14.9 14 17.1 24.1 1.1 5 1.1 10.2 0.1 15.3-1 5.2-3.1 10.1-6.1 14.5l-12 17.6c3.2 4.8 6.1 9.6 8.6 14.6 2.5 4.9 4.8 10.1 6.8 15.5l21.3 0.6c5.4 0.1 10.6 1.3 15.4 3.5 4.7 2.2 8.9 5.2 12.3 9 7 8 10.4 17.9 9.6 28.3zM150.2 409v51.3c0 16.5 13.5 30 30 30h594.1c16.5 0 30-13.5 30-30V409c0-6.9-2.3-13.2-6.2-18.3l-25 12.8c-5.8 2.9-12.2 4.5-18.5 4.5-3.8 0-7.5-0.5-11.1-1.6-4.9-1.4-9.4-3.8-13.3-6.9-4.1-3.3-7.5-7.4-9.9-12.1L716 379h-48.8l-5.4 7.9c-3.8 5.6-9 10.2-15.1 13.3-5.8 2.9-12.2 4.5-18.6 4.5h-0.7c-7-0.1-13.8-2.1-19.7-5.7L575 379H180.2c-16.5 0-30 13.5-30 30z m728.9-217.7c-0.9-1-2.1-1.5-3.7-1.5l-31.1-0.8-14.4-0.4-3.4-11.9c-0.7-2.4-1.4-4.8-2.2-7.1-1.7-4.9-3.7-9.7-6-14.1-3.3-6.5-7.5-12.9-12.4-19.1l-0.5-0.6-7.2-9 4.7-7 20.9-30.7c0.6-0.9 1.2-2.3 0.9-3.9-0.2-1-0.9-1.9-1.8-2.5L782.4 58c-0.8-0.5-1.8-0.8-2.9-0.8-1.1 0-2.2 0.3-3.3 0.8-1.1 0.5-2 1.3-2.6 2.3l-25.1 36.8-11.1-2.4c-8.9-1.9-18-2.9-27.1-2.9-6.9 0-13.9 0.6-20.8 1.6l-12 1.9-20.1-39.2c-0.7-1.4-2.4-2.3-4.4-2.3-1.1 0-2.2 0.3-3.2 0.8l-44 22.6c-1.6 0.8-2.7 2.1-3.3 3.5-0.3 0.7-0.6 2.2 0.1 3.6l15 29.3 5.1 9.9-8.6 8.6c-0.5 0.5-1 1-1.4 1.5-6 6.2-11.3 12.9-15.8 20-3.7 5.8-7 11.8-9.7 18.1l-4.5 10.4-44.7-1.2c-1.1 0-2.2 0.3-3.2 0.8-2.1 1.1-3.5 3-3.6 5l-3.5 47.3c-0.1 1.1 0.2 2.1 1 2.9 0.9 1 2.1 1.5 3.7 1.5l45.5 1.2 3.3 11.9c1.3 4.6 2.8 9.1 4.6 13.3 1.1 2.7 2.3 5.3 3.6 7.9 0.5 1 1.1 2 1.6 3 3 5.5 6.7 10.9 10.8 16.1l7.7 9.7-2.3 3.4-23.2 34-0.2 0.2c-0.9 1.3-1.2 2.6-0.9 3.9 0.2 1 0.9 1.9 1.8 2.5l40.5 24.8c0.8 0.5 1.8 0.8 2.9 0.8 1.1 0 2.2-0.3 3.3-0.8 1.1-0.5 2-1.3 2.6-2.3l19.8-29 5.3-7.8 11.1 2.4c8.9 1.9 18 2.9 27.1 2.9 6.9 0 13.9-0.6 20.8-1.6l12-1.9 3.1 6.1 17 33.1c0.7 1.4 2.4 2.3 4.4 2.3 1.1 0 2.2-0.3 3.2-0.8l44-22.6c2-1 3.4-2.9 3.6-4.8 0.1-0.8 0-1.6-0.4-2.3l-20.1-39.2 0.8-0.8 7.8-7.9c8.6-8.7 15.8-18.2 21.5-28.6 2-3.6 3.8-7.2 5.4-11l3.8-8.7 0.7-1.7 18.4 0.5 26.4 0.7c1.1 0 2.2-0.3 3.2-0.8 2.1-1.1 3.5-3 3.6-5l3.5-47.3c0.1-1.1-0.2-2.1-0.9-2.9zM692.2 305h13.3c-4.5 0.3-8.9 0.3-13.3 0zM789.7 241.3c-2.9 8.4-7.1 16.3-12.2 23.5-2 2.8-4.1 5.4-6.4 8-0.9 1-1.9 2.1-2.9 3.1-7.3 7.5-15.8 13.8-25.3 18.7-10.7 5.5-22.2 8.9-34.1 10.2l-3.3 0.3h-13.3c-6.7-0.5-13.3-1.6-19.8-3.6-11.9-3.5-22.6-9.2-31.9-16.9-3.2-2.7-6.2-5.6-9-8.6-3.1-3.4-5.8-7-8.3-10.9-1.5-2.4-3-4.9-4.3-7.4-5.3-10.4-8.4-21.6-9.3-33.3-0.9-12.1 0.8-24.1 4.9-35.8 4.1-11.6 10.3-22.2 18.6-31.5 1-1.2 2.1-2.3 3.2-3.4 7.3-7.4 15.7-13.6 25-18.4 1.1-0.6 2.2-1.1 3.4-1.6 9.8-4.5 20.1-7.4 30.7-8.6 12.3-1.3 24.6-0.2 36.4 3.3 4.8 1.4 9.3 3.2 13.7 5.3 6.5 3.1 12.6 7 18.2 11.7 3.1 2.6 6 5.4 8.7 8.3 5.1 5.6 9.4 11.8 12.9 18.6 5.3 10.4 8.4 21.6 9.3 33.3 0.9 12-0.8 24-4.9 35.7z m-16-34.3c-0.6-8.8-3-17.3-7-25.2-4-7.9-9.5-14.7-16.3-20.4-3.6-3-7.5-5.6-11.7-7.8-4-2.1-8.2-3.8-12.7-5.1-9.2-2.7-18.7-3.6-28.3-2.5-9.1 1-17.8 3.6-26.1 7.7-0.2 0.1-0.4 0.2-0.7 0.3-8.4 4.3-15.9 10.1-22.1 17-6.4 7.2-11.3 15.4-14.4 24.4-3.1 9-4.4 18.2-3.7 27.4 0.6 8.8 3 17.3 7 25.2 3.3 6.4 7.5 12.1 12.6 17 1.2 1.2 2.4 2.3 3.7 3.4 3.4 2.9 7.2 5.4 11.1 7.5 4.2 2.2 8.6 4.1 13.3 5.5 9.2 2.7 18.7 3.6 28.3 2.5 9.3-1 18.3-3.7 26.7-8 5.8-3 11.1-6.6 15.9-10.9 2.2-1.9 4.3-4 6.2-6.2 6.4-7.2 11.3-15.4 14.4-24.4 3.2-9 4.4-18.2 3.8-27.4z"  horiz-adv-x="1024" />

    
    <glyph glyph-name="gaotie" unicode="&#60244;" d="M860.848 323.808h-97.792a33.328 33.328 0 0 0-33.28 33.28V448M473.328 192V400h128v-198.016M281.328 400h80a16 16 0 0 0 16-16v-80a16 16 0 0 0-16-16h-80a16 16 0 0 0-16 16v80a16 16 0 0 0 16 16zM73.376 400H153.28a15.936 15.936 0 0 0 16.048-16.048v-79.904A15.936 15.936 0 0 0 153.28 288H105.376M673.104 768h217.472c8.384 0 15.184-8 15.184-18.336v-91.328c0-10.128-6.72-18.336-15.344-18.336H569.12c-8.48 0-15.344 8-15.344 18.336V749.664C553.76 759.792 560.464 768 569.04 768h39.552M576 416h-128a16 16 0 0 1-16-16v-208a16 16 0 0 1 32 0V384h96v-182.016a16 16 0 0 1 32 0V400a16 16 0 0 1-16 16zM335.952 384c0.112 0 0.048-79.952 0.048-79.952 0-0.112-79.952-0.048-79.952-0.048-0.112 0-0.048 79.952-0.048 79.952 0 0.112 79.952 0.048 79.952 0.048zM224 304.048c0-17.84 14.32-32.048 32.048-32.048h79.904A31.936 31.936 0 0 1 368 304.048v79.904A31.936 31.936 0 0 1 335.952 416h-79.904A31.936 31.936 0 0 1 224 383.952v-79.904zM127.952 384C128.064 384 128 304.048 128 304.048c0-0.112-47.952-0.048-47.952-0.048a16 16 0 0 1 0-32h47.904A31.936 31.936 0 0 1 160 304.048v79.904A31.936 31.936 0 0 1 127.952 416H48.048a16 16 0 0 1 0-32h79.904zM105.392 480a16 16 0 0 1 0 32H56.448a16 16 0 0 1 0-32h48.944zM951.824 48H880v80a16 16 0 0 1-32 0v-80h-48v80a16 16 0 0 1-32 0v-80h-128v80a16 16 0 0 1-32 0v-80h-48v80a16 16 0 0 1-32 0v-80h-128v80a16 16 0 0 1-32 0v-80h-48v80a16 16 0 0 1-32 0v-80H128.624a16 16 0 0 1 0-32h823.2a16 16 0 0 1 0 32zM201.248 192a16 16 0 0 1-16 16H112a16 16 0 0 1 0-32h73.248a16 16 0 0 1 16 16zM544.048 624H560v-48a16 16 0 0 1 32 0v48h240v-48a16 16 0 0 1 32 0v48h15.952C898.288 624 912 639.776 912 658.336V749.664C912 768.304 898.32 784 880.128 784h-227.36a16 16 0 0 1 0-32h227.36c-0.528 0-0.128-0.464-0.128-2.336v-91.328c0-1.808-0.448-2.336-0.048-2.336H544.048c0.384 0-0.048 0.496-0.048 2.336V749.664c0 1.824 0.448 2.336-0.032 2.336h41.344a16 16 0 0 1 0 32h-41.344C525.664 784 512 768.208 512 749.664v-91.328c0-18.672 13.808-34.336 32.048-34.336zM166.384 480h393.2c45.328 0 86.08-8.832 123.248-26.592a16.352 16.352 0 0 1-1.072-5.408v-90.912c0-27.168 22.08-49.28 49.28-49.28h97.792a15.68 15.68 0 0 1 6.896 1.712c2.544-3.264 5.168-6.544 7.632-9.776 2.576-3.36 5.072-6.656 7.472-9.856 18.608-24.928 30.832-44.256 32.176-50.64 3.536-16.72-9.776-31.248-33.808-31.248H247.984a16 16 0 0 1 0-32h601.232c43.472 0 73.056 32.272 65.12 69.84-2.736 13.008-15.792 33.648-37.856 63.184a1236.832 1236.832 0 0 1-7.696 10.176 1520.736 1520.736 0 0 1-43.376 53.92C754.944 465.792 668.576 512 559.6 512H166.4a16 16 0 0 1-0.016-32z m634.064-126.912c1.168-1.424 2.4-2.88 4.144-4.96 2.08-2.48 4.496-5.424 6.88-8.336h-80.416c-9.52 0-17.28 7.792-17.28 17.28v78.944c31.312-20.384 60.016-47.872 86.672-82.928zM64 192m-16 0a16 16 0 1 1 32 0 16 16 0 1 1-32 0ZM951.824 144H80a16 16 0 0 1 0-32h871.824a16 16 0 0 1 0 32zM768 704m-16 0a16 16 0 1 1 32 0 16 16 0 1 1-32 0ZM832 704m-16 0a16 16 0 1 1 32 0 16 16 0 1 1-32 0Z"  horiz-adv-x="1024" />

    
    <glyph glyph-name="gongchang" unicode="&#60245;" d="M284.016 640l59.616-688H144.448l35.536 688zM143.808 416h80.624a16 16 0 0 1 0 32H143.808a16 16 0 0 1 0-32zM240.624 160H144a16 16 0 0 1 0-32h96.624a16 16 0 0 1 0 32zM785.872 227.696a16 16 0 0 1-16-16v-68.928a16 16 0 0 1 32 0v68.928a16 16 0 0 1-16 16zM705.872 227.696a16 16 0 0 1-16-16v-68.928a16 16 0 0 1 32 0v68.928a16 16 0 0 1-16 16zM529.872 227.696a16 16 0 0 1-16-16v-68.928a16 16 0 0 1 32 0v68.928a16 16 0 0 1-16 16zM374.784 802.704a149.024 149.024 0 0 1-5.664 1.552c-42.672 10.624-87.216 0.208-130.416-23.248-10.832-5.888-20.768-12.176-29.6-18.496-5.376-3.84-9.248-6.896-11.44-8.752a16 16 0 0 1 20.704-24.4c1.536 1.312 4.736 3.808 9.344 7.104a251.52 251.52 0 0 0 26.256 16.4c36.832 20 73.904 28.672 107.424 20.32 1.44-0.352 2.88-0.752 4.304-1.168a16 16 0 1 1 9.088 30.688zM716.256 708.256a136.416 136.416 0 0 0-9.536-7.472c-8.144-5.936-17.536-11.888-28-17.456-29.728-15.808-61.856-25.248-95.072-25.248a16 16 0 0 1 0-32c38.992 0 76.064 10.896 110.096 28.992 20.368 10.832 35.344 21.744 43.84 29.312a16 16 0 1 1-21.328 23.872zM703.632 751.616a16 16 0 1 1-21.312 23.872 136.416 136.416 0 0 0-9.536-7.472c-8.144-5.936-17.536-11.888-28-17.456-29.728-15.808-61.856-25.248-95.072-25.248-31.104 0-51.584 7.424-78.8 25.456a16 16 0 0 1-17.68-26.672c32.064-21.248 58.384-30.784 96.48-30.784 38.992 0 76.064 10.896 110.096 28.992 20.352 10.832 35.328 21.744 43.824 29.312zM416 768m-16 0a16 16 0 1 1 32 0 16 16 0 1 1-32 0ZM316.128 173.952a16 16 0 1 1-31.92-2.256l15.68-220.832a16 16 0 1 1 31.92 2.256l-12.72 179.088-2.96 41.744zM832 32m-16 0a16 16 0 1 1 32 0 16 16 0 1 1-32 0ZM912-46.928V421.328a16 16 0 0 1-23.36 14.208l-255.328-132.384v118.176a16 16 0 0 1-22.576 14.592l-300.56-135.424-37.968 357.184a16 16 0 0 1-15.904 14.32H143.36a16 16 0 0 1-15.984-15.296l-31.36-704A16 16 0 1 1 128-48.72L158.656 640h83.248l38.784-364.848a16 16 0 0 1 22.48-12.896l93.376 42.08 204.752 92.256v-119.744a16 16 0 0 1 23.36-14.208L880 395.008V-32H400a16 16 0 0 1 0-32h496.208a16 16 0 0 1 16 16c0 0.384-0.176 0.704-0.208 1.072zM768 16a16 16 0 0 1 0 32H392.512a16 16 0 0 1 0-32H768z"  horiz-adv-x="1024" />

    
    <glyph glyph-name="jieneng" unicode="&#60246;" d="M181.312 283.952l-0.816 1.824-1.072-2.464a131.12 131.12 0 0 1-2.672-0.944l1.568-1.696c-33.632-81.584-20.336-177.232 42.112-244.192 61.408-65.856 153.808-86.224 236.512-60.384l-16.544 21.44 18.384-19.872c30.352 80.144 24.816 182.32-35.984 247.52-62.64 67.184-157.536 87.04-241.488 58.768zM605.824 688.032a13.632 13.632 0 0 1-2.016-0.784c-51.328 71.984-139.632 111.536-229.648 94.048-88.384-17.184-154.64-84.752-176.528-168.576 0 0 2.64-0.784 7.36-2.096l-7.008-0.304c51.872-68.208 141.456-117.664 228.976-100.64 89.776 17.456 156.704 86.88 177.536 172.528l2.24 0.864-1.52 2.208 0.608 2.752zM918.768 468.16l-8.912-10.48 6.864 11.792c-85.52 5.6-181.6-29.568-226.176-106.784-45.744-79.232-37.232-175.344 13.808-247.264l-0.896-2.16 2.656-0.304 1.68-2.288 1.168 2c87.856-8.304 175.44 32.368 221.216 111.664 45.008 77.984 37.488 172.304-11.408 243.824zM353.872 591.392a16 16 0 1 1 29.984-11.168 311.856 311.856 0 0 0 65.616 105.456 16.016 16.016 0 0 1-23.264 21.984 343.6 343.6 0 0 1-72.336-116.272zM193.664 221.712a16.016 16.016 0 0 1-9.136-30.672 343.84 343.84 0 0 1 136.4-12.192 16 16 0 0 1-3.552 31.808 311.84 311.84 0 0 0-123.712 11.056zM731.584 184.56a15.984 15.984 0 1 1 31.984 0.24 343.84 343.84 0 0 1-28.224 134 16 16 0 0 1-29.376-12.704 311.52 311.52 0 0 0 25.616-121.536zM151.248 301.216a15.584 15.584 0 0 1-15.072-5.728 15.568 15.568 0 0 1-6.992-15.024c-33.472-87.584-16.4-186.336 47.552-254.912 64.288-68.944 162.448-93.04 252.976-64.736a15.728 15.728 0 0 1 6.608 4.352 15.552 15.552 0 0 1 5.44 6.832c34.88 92.096 22.288 198.112-39.248 264.096-64.016 68.656-161.488 92.544-251.264 65.12z m262.752-311.552c-77.248-21.76-159.584-0.496-213.872 57.712-55.744 59.776-70.416 146.208-40.576 222.928 78.608 24.416 163.808 3.744 219.552-56.032 51.168-54.864 62.864-144.688 34.896-224.608zM589.52 688.352a15.552 15.552 0 0 1-9.04 13.888c-56.544 74.8-149.328 112.656-241.376 94.752-92.528-17.984-164.976-88.464-188.96-180.24a15.536 15.536 0 0 1 0.192-7.904c0.256-2.896 1.024-5.76 2.912-8.24 59.616-78.384 156.192-123.888 244.768-106.672 92.144 17.92 164.048 87.904 188.384 178.576a15.648 15.648 0 0 1 3.12 15.84zM391.904 525.376c-73.632-14.32-156.016 23.376-208.976 89.424 22.48 77.04 84.128 135.6 162.288 150.784 80.24 15.6 161.312-17.76 210.56-83.712-20.96-79.6-83.648-140.896-163.872-156.496zM899.968 477.184a15.392 15.392 0 0 1-6.096 5.04 15.44 15.44 0 0 1-8.128 3.2c-98.256 6.432-195.968-36.608-241.088-114.752-46.944-81.296-41.28-181.488 11.184-259.328a15.584 15.584 0 0 1 9.872-12.736 15.584 15.584 0 0 1 16.416-2.288c93.552-6.4 182.992 38.8 229.872 120 47.152 81.648 41.504 182.56-12.032 260.864z m-15.664-244.848c-40.864-70.784-119.232-110.096-201.312-103.984-46.336 68.032-51.472 155.552-10.608 226.336 37.504 64.96 120 102.416 204.592 99.04 43.392-67.504 47.136-152.448 7.328-221.392zM176 496m-16 0a16 16 0 1 1 32 0 16 16 0 1 1-32 0ZM768 544m-16 0a16 16 0 1 1 32 0 16 16 0 1 1-32 0ZM528 48m-16 0a16 16 0 1 1 32 0 16 16 0 1 1-32 0ZM318.752 89.184C221.472 145.568 160 251.232 160 368c0 11.648 0.608 23.2 1.808 34.656a16 16 0 0 1-31.824 3.344A365.824 365.824 0 0 1 128 368c0-128.224 67.6-244.416 174.72-306.496a16 16 0 1 1 16.032 27.68zM800 384a16 16 0 0 1-16-16c0-127.808-73.712-241.744-185.6-292.656a16 16 0 1 1 13.248-29.12C734.928 102.32 816 227.616 816 368a16 16 0 0 1-16 16zM687.52 621.808a16 16 0 0 1-2.384 22.496C624.88 693.04 550.432 720 472 720c-58.56 0-115.04-15.008-165.264-43.216a16 16 0 1 1 15.68-27.904A304.16 304.16 0 0 0 472 688c71.024 0 138.4-24.4 193.008-68.576 6.88-5.552 16.96-4.48 22.512 2.384z"  horiz-adv-x="1024" />

    
    <glyph glyph-name="shangdian" unicode="&#60247;" d="M232 336h224v-368h-224zM943.904 592H128.096A32 32 0 0 1 96 560.112v-62.304C105.456 460.304 140.848 432 183.312 432s77.856 28.304 85.696 65.808h3.232C280.096 460.304 315.488 432 357.952 432c42.48 0 77.856 28.304 85.696 65.808h3.232C454.736 460.304 490.128 432 532.592 432s77.856 28.304 85.696 65.808h3.232C629.376 460.304 664.768 432 707.232 432s77.856 28.304 85.696 65.808h3.232C804.016 460.304 839.392 432 881.872 432S968.16 460.992 976 498.496v61.616A31.872 31.872 0 0 1 943.904 592zM224 337.312h-32v-16a16 16 0 0 1 32 0v16c0 21.328-32 21.328-32 0v-369.776a16 16 0 0 1 32 0V337.312zM112 768L96 752h832l-16 16v-62.32a16 16 0 0 1 32 0V768a16 16 0 0 1-16 16H96a16 16 0 0 1-16-16v-65.456a16 16 0 0 1 32 0V768zM505.536 190.544a16 16 0 0 1 16-16h261.248a16 16 0 0 1 16 16v125.536a16 16 0 0 1-32 0v-125.536l16 16H521.536l16-16V352a16 16 0 0 1-32 0v-161.456zM880-48a16 16 0 0 1 0 32H193.664a16 16 0 0 1 0-32H880zM128 378.368a16 16 0 0 1-16-16v-394.384a16 16 0 0 1 32 0V362.368a16 16 0 0 1-16 16zM453.888 346.368a16 16 0 0 1-16 16H208.144a16 16 0 0 1 0-32h214.32V176H285.92a16 16 0 0 1 0-32h136.56v-155.184a16 16 0 0 1 32 0V342.592c0 1.296-0.448 2.256-0.672 3.392 0 0.144 0.08 0.256 0.08 0.384zM160 592m-16 0a16 16 0 1 1 32 0 16 16 0 1 1-32 0ZM782.768 368m-16 0a16 16 0 1 1 32 0 16 16 0 1 1-32 0ZM960.96 588.592a15.936 15.936 0 0 1-1.168 5.808c0.016 0.384 0.208 0.704 0.208 1.088a16 16 0 0 1-16 16H216.48a16 16 0 0 1 0-32h712.48v-57.968c0-1.136 0.416-2.144 0.656-3.216-0.224-1.072-0.656-2.08-0.656-3.216 0-36.864-31.76-67.072-71.312-67.072-39.568 0-71.312 30.208-71.312 67.072v6.432a16 16 0 0 1-32 0v-6.432c0-36.864-31.76-67.072-71.312-67.072-39.568 0-71.312 30.208-71.312 67.072v6.432a16 16 0 0 1-32 0v-6.432c0-36.864-31.76-67.072-71.312-67.072s-71.312 30.208-71.312 67.072v6.432a16 16 0 0 1-32 0v-6.432c0-36.864-31.76-67.072-71.312-67.072-39.568 0-71.312 30.208-71.312 67.072v6.432a16 16 0 0 1-32 0v-6.432C230.4 478.208 198.64 448 159.088 448s-71.312 30.208-71.312 67.072c0 1.136-0.416 2.144-0.656 3.216 0.224 1.072 0.656 2.08 0.656 3.216v51.072a16 16 0 0 1-32 0v-51.072c0-1.136 0.416-2.144 0.656-3.216-0.224-1.072-0.656-2.08-0.656-3.216C55.76 460.176 102.192 416 159.088 416c36.72 0 68.992 18.464 87.312 46.272C264.736 434.464 297.008 416 333.712 416c36.72 0 68.992 18.464 87.312 46.272C439.376 434.464 471.648 416 508.352 416s68.992 18.464 87.312 46.272C614.016 434.464 646.288 416 682.992 416c36.72 0 68.992 18.464 87.312 46.272C788.64 434.464 820.912 416 857.632 416c2.144 0 4.256 0.176 6.368 0.304v-441.168a16 16 0 0 1 32 0V420.224c0 0.96-0.384 1.808-0.544 2.72 38.272 14.464 65.504 50.112 65.504 92.128 0 1.136-0.416 2.144-0.656 3.216 0.224 1.072 0.656 2.08 0.656 3.216v67.088z"  horiz-adv-x="1024" />

    
    <glyph glyph-name="shouji" unicode="&#60099;" d="M341.333333 0H256V768h512v-768H341.333333z m0 85.333333h341.333334V682.666667H341.333333v-597.333334z m85.333334 42.666667v85.333333h170.666666v-85.333333h-170.666666z"  horiz-adv-x="1024" />

    
    <glyph glyph-name="wenjianjia" unicode="&#60102;" d="M853.333333 597.333333v-512H170.666667V682.666667h221.866666l42.666667-42.666667H853.333333v-42.666667zM256 554.666667v-384h512V554.666667H256z m298.666667-256h170.666666v-85.333334h-170.666666v85.333334z"  horiz-adv-x="1024" />

    
    <glyph glyph-name="cangku" unicode="&#60105;" d="M896 341.333333h-42.666667v-298.666666H170.666667v298.666666H128l384 384 384-384z m-640 8.533334V128h512v221.866667l-256 256-256-256z m174.933333 76.8h170.666667v-85.333334h-170.666667v85.333334z"  horiz-adv-x="1024" />

    
    <glyph glyph-name="fuwuliu" unicode="&#60106;" d="M853.333333 281.6c-4.266667 8.533333-12.8 12.8-21.333333 17.066667-21.333333 12.8-42.666667 12.8-64 8.533333v153.6c21.333333-4.266667 42.666667-4.266667 64 8.533333 8.533333 4.266667 17.066667 12.8 21.333333 17.066667v-204.8z m-89.6-140.8l-170.666666-93.866667v17.066667c0 21.333333-8.533333 42.666667-21.333334 59.733333l132.266667 76.8c4.266667-21.333333 21.333333-38.4 38.4-51.2 8.533333-4.266667 17.066667-4.266667 21.333333-8.533333zM170.666667 486.4c4.266667-4.266667 12.8-12.8 21.333333-17.066667 21.333333-12.8 42.666667-12.8 64-8.533333v-153.6c-21.333333 4.266667-42.666667 4.266667-64-8.533333-8.533333-4.266667-17.066667-12.8-21.333333-17.066667V486.4z m89.6 140.8l170.666666 93.866667v-17.066667c0-21.333333 8.533333-42.666667 21.333334-59.733333L315.733333 567.466667c-4.266667 21.333333-17.066667 38.4-38.4 51.2-4.266667 4.266667-12.8 4.266667-17.066666 8.533333z m0-486.4c4.266667 0 12.8 4.266667 17.066666 8.533333 21.333333 12.8 34.133333 29.866667 38.4 51.2l132.266667-76.8c-12.8-17.066667-21.333333-38.4-21.333333-59.733333v-17.066667l-166.4 93.866667zM763.733333 627.2c-4.266667 0-12.8-4.266667-17.066666-8.533333-21.333333-12.8-34.133333-29.866667-38.4-51.2l-132.266667 76.8c12.8 17.066667 21.333333 38.4 21.333333 59.733333v17.066667l166.4-93.866667z m-285.866666-98.133333V554.666667h64v-25.6c29.866667-8.533333 59.733333-21.333333 76.8-46.933334l21.333333 12.8 34.133333-55.466666-21.333333-12.8c4.266667-12.8 8.533333-29.866667 8.533333-46.933334s-4.266667-29.866667-8.533333-46.933333l21.333333-12.8-34.133333-55.466667-21.333333 12.8c-21.333333-21.333333-46.933333-38.4-76.8-46.933333v-17.066667h-64v25.6c-29.866667 8.533333-59.733333 21.333333-76.8 46.933334l-21.333334-12.8-34.133333 55.466666 21.333333 12.8c-4.266667 12.8-8.533333 29.866667-8.533333 46.933334s4.266667 29.866667 8.533333 46.933333l-21.333333 12.8 34.133333 55.466667 21.333334-12.8c21.333333 17.066667 46.933333 34.133333 76.8 38.4zM512 298.666667c46.933333 0 85.333333 38.4 85.333333 85.333333s-38.4 85.333333-85.333333 85.333333-85.333333-38.4-85.333333-85.333333 38.4-85.333333 85.333333-85.333333z m0 42.666666c-25.6 0-42.666667 17.066667-42.666667 42.666667s17.066667 42.666667 42.666667 42.666667 42.666667-17.066667 42.666667-42.666667-17.066667-42.666667-42.666667-42.666667z m0 320c-25.6 0-42.666667 17.066667-42.666667 42.666667s17.066667 42.666667 42.666667 42.666667 42.666667-17.066667 42.666667-42.666667-17.066667-42.666667-42.666667-42.666667z m0-640c-25.6 0-42.666667 17.066667-42.666667 42.666667s17.066667 42.666667 42.666667 42.666667 42.666667-17.066667 42.666667-42.666667-17.066667-42.666667-42.666667-42.666667z m238.933333 503.466667c-12.8 21.333333-4.266667 46.933333 17.066667 59.733333 21.333333 12.8 46.933333 4.266667 59.733333-17.066666s4.266667-46.933333-17.066666-59.733334c-21.333333-12.8-46.933333-4.266667-59.733334 17.066667z m-554.666666-320c-12.8 21.333333-4.266667 46.933333 17.066666 59.733333 21.333333 12.8 46.933333 4.266667 59.733334-17.066666 12.8-21.333333 4.266667-46.933333-17.066667-59.733334s-46.933333-4.266667-59.733333 17.066667z m76.8 320c-12.8-21.333333-38.4-29.866667-59.733334-17.066667-21.333333 12.8-25.6 38.4-17.066666 59.733334 12.8 17.066667 38.4 25.6 59.733333 12.8 21.333333-12.8 25.6-38.4 17.066667-55.466667z m554.666666-320c-12.8-21.333333-38.4-25.6-59.733333-17.066667-21.333333 12.8-25.6 38.4-17.066667 59.733334s38.4 25.6 59.733334 17.066666c21.333333-17.066667 25.6-42.666667 17.066666-59.733333z"  horiz-adv-x="1024" />

    
    <glyph glyph-name="sousuo" unicode="&#60158;" d="M469.333333 128c-166.4 0-298.666667 132.266667-298.666666 298.666667s132.266667 298.666667 298.666666 298.666666 298.666667-132.266667 298.666667-298.666666-132.266667-298.666667-298.666667-298.666667z m0 85.333333c119.466667 0 213.333333 93.866667 213.333334 213.333334s-93.866667 213.333333-213.333334 213.333333-213.333333-93.866667-213.333333-213.333333 93.866667-213.333333 213.333333-213.333334z m251.733334 0l119.466666-119.466666-59.733333-59.733334-119.466667 119.466667 59.733334 59.733333z"  horiz-adv-x="1024" />

    
    <glyph glyph-name="xiangzuo" unicode="&#60181;" d="M401.066667 384l302.933333-302.933333-59.733333-59.733334L341.333333 324.266667 281.6 384 341.333333 443.733333l302.933334 302.933334 59.733333-59.733334L401.066667 384z"  horiz-adv-x="1024" />

    
    <glyph glyph-name="qiandao" unicode="&#60198;" d="M725.333333 264.533333c-55.466667-29.866667-128-51.2-213.333333-51.2s-157.866667 21.333333-213.333333 51.2V213.333333c0-46.933333 93.866667-85.333333 213.333333-85.333333s213.333333 38.4 213.333333 85.333333v51.2z m0 119.466667v51.2c-55.466667-29.866667-128-51.2-213.333333-51.2s-157.866667 21.333333-213.333333 51.2V384c0-46.933333 93.866667-85.333333 213.333333-85.333333s213.333333 38.4 213.333333 85.333333z m85.333334 170.666667v-341.333334c0-93.866667-132.266667-170.666667-298.666667-170.666666s-298.666667 76.8-298.666667 170.666666V554.666667c0 93.866667 132.266667 170.666667 298.666667 170.666666s298.666667-76.8 298.666667-170.666666z m-298.666667-85.333334c119.466667 0 213.333333 38.4 213.333333 85.333334s-93.866667 85.333333-213.333333 85.333333-213.333333-38.4-213.333333-85.333333 93.866667-85.333333 213.333333-85.333334z"  horiz-adv-x="1024" />

    
    <glyph glyph-name="qunzu" unicode="&#60197;" d="M640 140.8L567.466667 213.333333H328.533333L256 140.8v-12.8h384v12.8z m85.333333 38.4V42.666667H170.666667v136.533333L290.133333 298.666667h311.466667l123.733333-119.466667zM661.333333 298.666667h72.533334l119.466666-119.466667V42.666667h-85.333333v149.333333L661.333333 298.666667z m-128 46.933333c59.733333 17.066667 106.666667 76.8 106.666667 145.066667v85.333333c0 68.266667-46.933333 123.733333-106.666667 145.066667 12.8 4.266667 29.866667 4.266667 42.666667 4.266666C657.066667 725.333333 725.333333 657.066667 725.333333 576v-85.333333c0-81.066667-68.266667-149.333333-149.333333-149.333334-17.066667 0-29.866667 4.266667-42.666667 4.266667z m-85.333333 379.733333C529.066667 725.333333 597.333333 657.066667 597.333333 576v-85.333333c0-81.066667-68.266667-149.333333-149.333333-149.333334S298.666667 409.6 298.666667 490.666667v85.333333C298.666667 657.066667 366.933333 725.333333 448 725.333333z m0-85.333333C413.866667 640 384 610.133333 384 576v-85.333333c0-34.133333 29.866667-64 64-64s64 29.866667 64 64v85.333333c0 34.133333-29.866667 64-64 64z"  horiz-adv-x="1024" />

    
    <glyph glyph-name="naozhong" unicode="&#60201;" d="M426.666667 712.533333V768h170.666666v-55.466667c149.333333-38.4 256-170.666667 256-328.533333 0-187.733333-153.6-341.333333-341.333333-341.333333s-341.333333 153.6-341.333333 341.333333c0 157.866667 106.666667 294.4 256 328.533333zM512 128c140.8 0 256 115.2 256 256s-115.2 256-256 256-256-115.2-256-256 115.2-256 256-256z m110.933333 426.666667L682.666667 494.933333 529.066667 341.333333 469.333333 401.066667 622.933333 554.666667z"  horiz-adv-x="1024" />

    
    <glyph glyph-name="zhuzhuangtu" unicode="&#60205;" d="M298.666667 128h554.666666v-85.333333H213.333333V682.666667h85.333334v-554.666667zM341.333333 597.333333h85.333334v-426.666666H341.333333V597.333333z m128-85.333333h85.333334v-341.333333h-85.333334V512z m128-85.333333h85.333334v-256h-85.333334v256z m128-85.333334h85.333334v-170.666666h-85.333334v170.666666z"  horiz-adv-x="1024" />

    
    <glyph glyph-name="xinwen" unicode="&#60226;" d="M341.333333 170.666667h298.666667V597.333333H256v-426.666666h85.333333z m-170.666666 0V682.666667h554.666666v-128h128v-384c0-46.933333-38.4-85.333333-85.333333-85.333334H256c-46.933333 0-85.333333 38.4-85.333333 85.333334z m554.666666 298.666666v-277.333333c0-12.8 8.533333-21.333333 21.333334-21.333333s21.333333 8.533333 21.333333 21.333333V469.333333h-42.666667zM298.666667 554.666667h298.666666v-85.333334H298.666667V554.666667z m0-128h298.666666v-85.333334H298.666667v85.333334z m0-128h213.333333v-85.333334H298.666667v85.333334z"  horiz-adv-x="1024" />

    


  </font>
</defs>
</svg>
