<?xml version="1.0" standalone="no"?><!DOCTYPE svg PUBLIC "-//W3C//DTD SVG 1.1//EN" "http://www.w3.org/Graphics/SVG/1.1/DTD/svg11.dtd"><svg t="1561542789178" class="icon" viewBox="0 0 1024 1024" version="1.1" xmlns="http://www.w3.org/2000/svg" p-id="5837" xmlns:xlink="http://www.w3.org/1999/xlink" width="50" height="50"><defs><style type="text/css"></style></defs><path d="M512 512m-445 0a445 445 0 1 0 890 0 445 445 0 1 0-890 0Z" fill="#E6F3FF" p-id="5838"></path><path d="M555.8 696.5V346.1c0-8.4-6.8-15.2-15.2-15.2H357.7c-8.4 0-15.2 6.8-15.2 15.2v335.2c0 8.4 6.8 15.2 15.2 15.2" fill="#148AF4" p-id="5839"></path><path d="M555.8 436.6h114.3c8.4 0 15.2 6.8 15.2 15.2v229.5c0 8.4-6.8 15.2-15.2 15.2H555.8" fill="#22D0FF" p-id="5840"></path><path d="M641.7 503.7H596c-4.6 0-8.3-3.7-8.3-8.3 0-4.6 3.7-8.3 8.3-8.3h45.7c4.6 0 8.3 3.7 8.3 8.3-0.1 4.6-3.8 8.3-8.3 8.3zM641.7 553.3H596c-4.6 0-8.3-3.7-8.3-8.3 0-4.6 3.7-8.3 8.3-8.3h45.7c4.6 0 8.3 3.7 8.3 8.3-0.1 4.6-3.8 8.3-8.3 8.3zM641.7 602.9H596c-4.6 0-8.3-3.7-8.3-8.3s3.7-8.3 8.3-8.3h45.7c4.6 0 8.3 3.7 8.3 8.3s-3.8 8.3-8.3 8.3zM511.5 401H386.8c-3.4 0-6.2-2.8-6.2-6.2v-0.6c0-3.4 2.8-6.2 6.2-6.2h124.8c3.4 0 6.2 2.8 6.2 6.2v0.6c-0.1 3.4-2.8 6.2-6.3 6.2zM511.5 453.3H386.8c-3.4 0-6.2-2.8-6.2-6.2v-0.6c0-3.4 2.8-6.2 6.2-6.2h124.8c3.4 0 6.2 2.8 6.2 6.2v0.6c-0.1 3.4-2.8 6.2-6.3 6.2zM511.5 505.7H386.8c-3.4 0-6.2-2.8-6.2-6.2v-0.6c0-3.4 2.8-6.2 6.2-6.2h124.8c3.4 0 6.2 2.8 6.2 6.2v0.6c-0.1 3.4-2.8 6.2-6.3 6.2zM511.5 558H386.8c-3.4 0-6.2-2.8-6.2-6.2v-0.6c0-3.4 2.8-6.2 6.2-6.2h124.8c3.4 0 6.2 2.8 6.2 6.2v0.6c-0.1 3.5-2.8 6.2-6.3 6.2zM478.9 696.5H421v-86c0-4.2 3.4-7.6 7.6-7.6h42.7c4.2 0 7.6 3.4 7.6 7.6v86z" fill="#B8DDFF" p-id="5841"></path></svg>