<?xml version="1.0" standalone="no"?><!DOCTYPE svg PUBLIC "-//W3C//DTD SVG 1.1//EN" "http://www.w3.org/Graphics/SVG/1.1/DTD/svg11.dtd"><svg t="1561542795560" class="icon" viewBox="0 0 1024 1024" version="1.1" xmlns="http://www.w3.org/2000/svg" p-id="5957" xmlns:xlink="http://www.w3.org/1999/xlink" width="50" height="50"><defs><style type="text/css"></style></defs><path d="M512 512m-445 0a445 445 0 1 0 890 0 445 445 0 1 0-890 0Z" fill="#E6F3FF" p-id="5958"></path><path d="M512 301.4c-91.4 0-165.6 74.1-165.6 165.5 0 56.5 28.3 106.3 71.4 136.1 12.2 8.5 24 17.5 34.4 28.1l1.3 1.3c0 0.2 29.2 0.3 58.4 0.3s58.4-0.1 58.4-0.3l1.3-1.3c10.4-10.6 22.2-19.7 34.4-28.1 43.2-29.9 71.4-79.7 71.4-136.1 0.2-91.4-74-165.5-165.4-165.5zM529.2 710.3h-34.4c-13.3 0-25.5-7.5-31.5-19.5h97.4c-6 12-18.2 19.5-31.5 19.5zM570.9 651.9H453.1c-5.1 0-9.3 4.2-9.3 9.3v0.9c0 5.1 4.2 9.3 9.3 9.3h117.7c5.1 0 9.3-4.2 9.3-9.3v-0.9c0.1-5.1-4.1-9.3-9.2-9.3z" fill="#148AF4" p-id="5959"></path><path d="M561.4 397.9c-2-1.5-4.5-2.2-7-2.2-4 0-7.7 1.9-10.2 5.2L512 447.6l-32.4-46.9c-2.3-3.1-6.1-5-10-5-2.6 0-5 0.8-6.7 2.1-5.6 3.7-7.2 11.1-3.5 17.2l35 50.4H474c-5.4 0-9.9 4.5-9.9 9.9 0 5.6 4.5 10.3 9.9 10.3h25.7v9H474c-5.4 0-9.9 4.6-9.9 10.1s4.5 10.1 9.9 10.1h25.7v23.3c0 6.8 5.4 12.1 12.3 12.1s12.3-5.3 12.3-12.1v-23.3H550c5.5 0 9.9-4.5 9.9-10.1s-4.4-10.1-9.9-10.1h-25.7v-9H550c5.5 0 9.9-4.6 9.9-10.3 0-5.5-4.4-9.9-9.9-9.9h-20.2l34.9-50.4c3.6-5.8 2.2-13.2-3.3-17.1z" fill="#22D0FF" p-id="5960"></path><path d="M561.1 671.4h-98.3c-5.1 0-9.3 4.2-9.3 9.3v0.9c0 5.1 4.2 9.3 9.3 9.3h98.3c5.1 0 9.3-4.2 9.3-9.3v-0.9c0-5.2-4.1-9.3-9.3-9.3zM570.9 632.4H453.1c-5.1 0-9.3 4.2-9.3 9.3v0.9c0 5.1 4.2 9.3 9.3 9.3h117.7c5.1 0 9.3-4.2 9.3-9.3v-0.9c0.1-5.1-4.1-9.3-9.2-9.3z" fill="#B8DDFF" p-id="5961"></path></svg>