<?xml version="1.0" standalone="no"?><!DOCTYPE svg PUBLIC "-//W3C//DTD SVG 1.1//EN" "http://www.w3.org/Graphics/SVG/1.1/DTD/svg11.dtd"><svg t="1561542781157" class="icon" viewBox="0 0 1024 1024" version="1.1" xmlns="http://www.w3.org/2000/svg" p-id="5716" xmlns:xlink="http://www.w3.org/1999/xlink" width="50" height="50"><defs><style type="text/css"></style></defs><path d="M512 512m-445 0a445 445 0 1 0 890 0 445 445 0 1 0-890 0Z" fill="#E6F3FF" p-id="5717"></path><path d="M367 599.8h-15.3v-76.3c0-12.6 10.3-22.9 22.9-22.9h274.8c12.6 0 22.9 10.3 22.9 22.9v68.7H657v-68.7c0-4.2-3.4-7.6-7.6-7.6H374.6c-4.2 0-7.6 3.4-7.6 7.6v76.3z" fill="#B8DDFF" p-id="5718"></path><path d="M504.4 420.4h15.3v167.9h-15.3z" fill="#B8DDFF" p-id="5719"></path><path d="M541.3 443.3h-58.5c-9.1 0-16.5-7.4-16.5-16.5v-58.5c0-9.1 7.4-16.5 16.5-16.5h58.5c9.1 0 16.5 7.4 16.5 16.5v58.5c0 9.1-7.4 16.5-16.5 16.5z" fill="#22D0FF" p-id="5720"></path><path d="M541.3 672.3h-58.5c-9.1 0-16.5-7.4-16.5-16.5v-58.5c0-9.1 7.4-16.5 16.5-16.5h58.5c9.1 0 16.5 7.4 16.5 16.5v58.5c0 9.1-7.4 16.5-16.5 16.5zM693.9 672.3h-58.5c-9.1 0-16.5-7.4-16.5-16.5v-58.5c0-9.1 7.4-16.5 16.5-16.5h58.5c9.1 0 16.5 7.4 16.5 16.5v58.5c0 9.1-7.4 16.5-16.5 16.5zM404.8 592.9c-1.2-6-5.9-10.7-11.9-11.9-1-0.2-2-0.3-3.1-0.3h-61.1c-8.4 0-15.3 6.8-15.3 15.3v61c0 8.4 6.8 15.3 15.3 15.3h61.1c8.4 0 15.3-6.8 15.3-15.3v-61c0-1.1-0.1-2.1-0.3-3.1z" fill="#148AF4" p-id="5721"></path></svg>