<?xml version="1.0" standalone="no"?><!DOCTYPE svg PUBLIC "-//W3C//DTD SVG 1.1//EN" "http://www.w3.org/Graphics/SVG/1.1/DTD/svg11.dtd"><svg t="1561598837172" class="icon" viewBox="0 0 1024 1024" version="1.1" xmlns="http://www.w3.org/2000/svg" p-id="6325" xmlns:xlink="http://www.w3.org/1999/xlink" width="50" height="50"><defs><style type="text/css"></style></defs><path d="M512 512m-445 0a445 445 0 1 0 890 0 445 445 0 1 0-890 0Z" fill="#E6F3FF" p-id="6326"></path><path d="M512.2 681.2c-4.4 0-7.9-3.5-7.9-7.9V622c0-4.4 3.5-7.9 7.9-7.9s7.9 3.5 7.9 7.9v51.3c0 4.3-3.5 7.9-7.9 7.9z" fill="#22D0FF" p-id="6327"></path><path d="M666.1 681.2H358.3c-4.4 0-7.9-3.5-7.9-7.9s3.5-7.9 7.9-7.9h307.9c4.4 0 7.9 3.5 7.9 7.9s-3.6 7.9-8 7.9z" fill="#22D0FF" p-id="6328"></path><path d="M686.8 622H337.2c-8.7 0-15.8-7.1-15.8-15.8V366.5c0-8.7 7.1-15.8 15.8-15.8h349.6c8.7 0 15.8 7.1 15.8 15.8v239.7c0 8.7-7.1 15.8-15.8 15.8z" fill="#148AF4" p-id="6329"></path><path d="M377.6 457.5c0-4.3 3.5-7.8 7.8-7.8H405c16.3 0 29.2 4.3 29.2 19.4 0 7-3.9 14.6-10.2 17v0.4c7.9 2.1 13.9 8 13.9 18.5 0 16-13.6 23.2-30.7 23.2h-21.8c-4.3 0-7.8-3.5-7.8-7.8v-62.9z m26.7 23.3c8 0 11.6-3.5 11.6-8.9 0-5.6-3.7-7.9-11.6-7.9h-7.8v16.8h7.8z m1.6 32.9c9.1 0 13.7-3.3 13.7-10 0-6.4-4.5-9-13.7-9h-9.4v19h9.4zM458.8 449.7H493c4.3 0 7.8 3.5 7.8 7.8s-3.5 7.8-7.8 7.8h-23.1v14.6h18.5c4.3 0 7.8 3.5 7.8 7.8v0.2c0 4.3-3.5 7.8-7.8 7.8h-18.5v16.7h24.3c4.3 0 7.8 3.5 7.8 7.8v0.2c0 4.3-3.5 7.8-7.8 7.8h-35.4c-4.3 0-7.8-3.5-7.8-7.8v-62.9c0-4.3 3.5-7.8 7.8-7.8zM524.8 465.3h-5.6c-4.3 0-7.8-3.5-7.8-7.8s3.5-7.8 7.8-7.8H565c4.3 0 7.8 3.5 7.8 7.8s-3.5 7.8-7.8 7.8h-5.7c-4.3 0-7.8 3.5-7.8 7.8v47.3c0 4.3-3.5 7.8-7.8 7.8h-3.3c-4.3 0-7.8-3.5-7.8-7.8v-47.3c0-4.3-3.5-7.8-7.8-7.8zM611.1 510.1h-11c-3.6 0-6.7 2.4-7.6 5.9l-1.6 6.2c-0.9 3.5-4 5.9-7.6 5.9h-2.5c-5.3 0-9-5.1-7.5-10.1l17.9-57.6c2-6.4 7.9-10.8 14.6-10.8 6.7 0 12.6 4.4 14.6 10.8l17.9 57.6c1.6 5-2.2 10.1-7.5 10.1h-3.1c-3.6 0-6.7-2.4-7.6-5.9l-1.6-6.2c-0.7-3.4-3.9-5.9-7.4-5.9z m-0.6-14.5c1.5 0 2.7-1.5 2.3-3l-0.9-3.7c-1.1-4-2.7-10.5-4.1-15.9-0.6-2.4-4-2.4-4.6 0-1.3 5.4-2.9 11.9-4 15.9l-0.9 3.7c-0.4 1.5 0.8 3 2.3 3h9.9z" fill="#B8DDFF" p-id="6330"></path></svg>