<?xml version="1.0" standalone="no"?><!DOCTYPE svg PUBLIC "-//W3C//DTD SVG 1.1//EN" "http://www.w3.org/Graphics/SVG/1.1/DTD/svg11.dtd"><svg t="1561598863451" class="icon" viewBox="0 0 1024 1024" version="1.1" xmlns="http://www.w3.org/2000/svg" p-id="6686" xmlns:xlink="http://www.w3.org/1999/xlink" width="50" height="50"><defs><style type="text/css"></style></defs><path d="M512 512m-445 0a445 445 0 1 0 890 0 445 445 0 1 0-890 0Z" fill="#E6F3FF" p-id="6687"></path><path d="M376.6 533.7l201.8-201.8c6.2-6.2 16.1-6.2 22.3 0l125 125c6.2 6.2 6.2 16.1 0 22.3L523.8 680.9c-6.2 6.2-16.1 6.2-22.3 0l-125-125c-6.1-6.1-6.1-16.1 0.1-22.2z" fill="#22D0FF" p-id="6688"></path><path d="M501.5 680.9L299.7 479.1c-6.2-6.2-6.2-16.1 0-22.3l125-125c6.2-6.2 16.1-6.2 22.3 0l201.8 201.8c6.2 6.2 6.2 16.1 0 22.3l-125 125c-6.2 6.2-16.1 6.2-22.3 0z" fill="#2398F9" p-id="6689"></path><path d="M648.2 533.1L447.5 332.4c-6.5-6.5-16.9-6.5-23.4 0L300.3 456.3c-6.5 6.5-6.5 16.9 0 23.4L501 680.4c6.5 6.5 16.9 6.5 23.4 0l21.2-21.2c-0.6-0.4-1.3-0.7-1.9-1.2l-67.9-68c-3.2-3.2-3.2-8.5 0-11.7 3.2-3.2 8.5-3.2 11.7 0l67.9 67.9c0.6 0.6 0.9 1.2 1.2 1.9l24.1-24.1c-0.6-0.4-1.3-0.7-1.9-1.2l-67.8-68c-3.2-3.2-3.2-8.5 0-11.7 3.2-3.2 8.5-3.2 11.7 0l67.9 67.9c0.6 0.6 0.9 1.2 1.2 1.9l24.1-24.1c-0.6-0.4-1.3-0.7-1.9-1.2l-67.9-67.9c-3.2-3.2-3.2-8.5 0-11.7 3.2-3.2 8.5-3.2 11.7 0l67.9 67.9c0.6 0.6 0.9 1.2 1.2 1.9l21.2-21.2c6.6-6.6 6.6-17 0.1-23.5z" fill="#148AF4" p-id="6690"></path><path d="M557.9 507.9c-3.2-3.2-8.5-3.2-11.7 0-3.2 3.2-3.2 8.5 0 11.7l67.9 67.9c0.6 0.6 1.2 0.9 1.9 1.2l11.1-11.1c-0.4-0.6-0.7-1.3-1.2-1.9l-68-67.8zM522.7 543.1c-3.2-3.2-8.5-3.2-11.7 0-3.2 3.2-3.2 8.5 0 11.7l67.9 67.9c0.6 0.6 1.2 0.9 1.9 1.2l11.1-11.1c-0.4-0.6-0.7-1.3-1.2-1.9l-68-67.8zM487.5 578.3c-3.2-3.2-8.5-3.2-11.7 0-3.2 3.2-3.2 8.5 0 11.7l67.9 67.9c0.6 0.6 1.2 0.9 1.9 1.2l11.1-11.1c-0.4-0.6-0.7-1.3-1.2-1.9l-68-67.8z" fill="#B8DDFF" p-id="6691"></path></svg>