<?xml version="1.0" standalone="no"?><!DOCTYPE svg PUBLIC "-//W3C//DTD SVG 1.1//EN" "http://www.w3.org/Graphics/SVG/1.1/DTD/svg11.dtd"><svg t="1561598825277" class="icon" viewBox="0 0 1024 1024" version="1.1" xmlns="http://www.w3.org/2000/svg" p-id="6201" xmlns:xlink="http://www.w3.org/1999/xlink" width="50" height="50"><defs><style type="text/css"></style></defs><path d="M512 512m-445 0a445 445 0 1 0 890 0 445 445 0 1 0-890 0Z" fill="#E6F3FF" p-id="6202"></path><path d="M511.5 719.5c-109.4 0-198.4-89-198.4-198.4s89-198.4 198.4-198.4S710 411.6 710 521s-89.1 198.5-198.5 198.5z" fill="#5AA1ED" p-id="6203"></path><path d="M511.5 332c104.4 0 189 84.6 189 189s-84.6 189-189 189-189-84.6-189-189 84.6-189 189-189m0-18.9c-114.6 0-207.9 93.3-207.9 207.9s93.3 207.9 207.9 207.9S719.4 635.7 719.4 521s-93.3-207.9-207.9-207.9z" fill="#148AF4" p-id="6204"></path><path d="M511.5 521m-189 0a189 189 0 1 0 378 0 189 189 0 1 0-378 0Z" fill="#148AF4" p-id="6205"></path><path d="M373.1 521a138.4 136.5 0 1 0 276.8 0 138.4 136.5 0 1 0-276.8 0Z" fill="#22D0FF" p-id="6206"></path><path d="M511.5 521m-85 0a85 85 0 1 0 170 0 85 85 0 1 0-170 0Z" fill="#148AF4" p-id="6207"></path><path d="M511.5 521m-37.8 0a37.8 37.8 0 1 0 75.6 0 37.8 37.8 0 1 0-75.6 0Z" fill="#22D0FF" p-id="6208"></path><path d="M704.2 361.5l-26.3-7.1-7.1-26.4c-1.9-7-10.7-9.4-15.8-4.2l-51.4 51.4c-1.5 1.5-2.3 3.4-2.6 5.4 0 0.2-0.1 0.4-0.1 0.5-0.1 1.1-0.1 2.1 0.2 3.2l7 26.1-102 102c-3.8 3.8-3.8 9.9 0 13.7 1.9 1.9 4.4 2.8 6.8 2.8s4.9-0.9 6.8-2.8l102-102 26.1 7c3.3 0.9 6.7-0.1 9.1-2.4l51.4-51.4c5.2-5.2 2.9-13.9-4.1-15.8z" fill="#B8DDFF" p-id="6209"></path></svg>