<?xml version="1.0" standalone="no"?><!DOCTYPE svg PUBLIC "-//W3C//DTD SVG 1.1//EN" "http://www.w3.org/Graphics/SVG/1.1/DTD/svg11.dtd"><svg t="1561537257431" class="icon" viewBox="0 0 1024 1024" version="1.1" xmlns="http://www.w3.org/2000/svg" p-id="5098" xmlns:xlink="http://www.w3.org/1999/xlink" width="50" height="50"><defs><style type="text/css"></style></defs><path d="M512 512m-445 0a445 445 0 1 0 890 0 445 445 0 1 0-890 0Z" fill="#E6F3FF" p-id="5099"></path><path d="M642.4 689.3H379c-8.7 0-15.8-7.1-15.8-15.8V343.1c0-8.7 7.1-15.8 15.8-15.8h263.4c8.7 0 15.8 7.1 15.8 15.8v330.4c0 8.7-7.1 15.8-15.8 15.8z" fill="#148AF4" p-id="5100"></path><path d="M620.7 634.8m-75.6 0a75.6 75.6 0 1 0 151.2 0 75.6 75.6 0 1 0-151.2 0Z" fill="#22D0FF" p-id="5101"></path><path d="M606.9 605.2v59.2c0 5.3 6.2 8.1 10.2 4.6l33.8-29.6c2.8-2.5 2.8-6.8 0-9.3l-33.8-29.6c-3.9-3.4-10.2-0.6-10.2 4.7zM578.1 428.4H443.2c-4.6 0-8.3-3.7-8.3-8.3s3.7-8.3 8.3-8.3h134.9c4.6 0 8.3 3.7 8.3 8.3s-3.7 8.3-8.3 8.3zM578.1 487H443.2c-4.6 0-8.3-3.7-8.3-8.3 0-4.6 3.7-8.3 8.3-8.3h134.9c4.6 0 8.3 3.7 8.3 8.3 0 4.6-3.7 8.3-8.3 8.3zM578.1 545.7H443.2c-4.6 0-8.3-3.7-8.3-8.3s3.7-8.3 8.3-8.3h134.9c4.6 0 8.3 3.7 8.3 8.3s-3.7 8.3-8.3 8.3zM501.9 604.3h-58.6c-4.6 0-8.3-3.7-8.3-8.3 0-4.6 3.7-8.3 8.3-8.3h58.6c4.6 0 8.3 3.7 8.3 8.3 0 4.6-3.7 8.3-8.3 8.3z" fill="#B8DDFF" p-id="5102"></path></svg>