<?xml version="1.0" standalone="no"?><!DOCTYPE svg PUBLIC "-//W3C//DTD SVG 1.1//EN" "http://www.w3.org/Graphics/SVG/1.1/DTD/svg11.dtd"><svg t="1561537273137" class="icon" viewBox="0 0 1024 1024" version="1.1" xmlns="http://www.w3.org/2000/svg" p-id="5342" xmlns:xlink="http://www.w3.org/1999/xlink" width="50" height="50"><defs><style type="text/css"></style></defs><path d="M512 512m-445 0a445 445 0 1 0 890 0 445 445 0 1 0-890 0Z" fill="#E6F3FF" p-id="5343"></path><path d="M710.4 578.1H313.6V354.9c0-9.1 7.4-16.5 16.5-16.5h363.8c9.1 0 16.5 7.4 16.5 16.5v223.2z" fill="#D9F0FF" p-id="5344"></path><path d="M710.4 578.1H313.6V354.9c0-9.1 7.4-16.5 16.5-16.5h363.8c9.1 0 16.5 7.4 16.5 16.5v223.2z" fill="#148AF4" p-id="5345"></path><path d="M558.1 611.2H465.9l-16.6 57.9h125.4z" fill="#22D0FF" p-id="5346"></path><path d="M636 685.6H388c-4.6 0-8.3-3.7-8.3-8.3 0-4.6 3.7-8.3 8.3-8.3h248c4.6 0 8.3 3.7 8.3 8.3 0 4.6-3.7 8.3-8.3 8.3z" fill="#148AF4" p-id="5347"></path><path d="M693.9 611.2H330.1c-9.1 0-16.5-7.4-16.5-16.5v-16.5h396.9v16.5c-0.1 9.1-7.5 16.5-16.6 16.5z" fill="#B8DDFF" p-id="5348"></path><path d="M437.3 426.1L390.7 496c-3.4 5 0.3 11.8 6.3 11.8h93.1c6.1 0 9.7-6.8 6.3-11.8L450 426.1c-3-4.5-9.7-4.5-12.7 0zM604.9 422.1c-10.6-7.6-24.2-11.1-38.7-8.4-19.4 3.7-35.1 19.3-38.9 38.7-6.2 31.8 18 59.6 48.6 59.6 24.7 0 45.1-18 49-41.6 0.7-4.2-2.8-8-7.1-8H593c-6.3 0-9.5-7.6-5-12.1l17.5-17.5c3.1-3.1 2.9-8.2-0.6-10.7z" fill="#22D0FF" p-id="5349"></path><path d="M614.9 454h24.8c4.3 0 7.7-3.8 7.1-8-1.3-7.7-4.3-14.8-8.7-20.9-2.5-3.5-7.6-3.7-10.6-0.7L610 441.9c-4.6 4.5-1.4 12.1 4.9 12.1z" fill="#22D0FF" p-id="5350"></path></svg>