<?xml version="1.0" standalone="no"?><!DOCTYPE svg PUBLIC "-//W3C//DTD SVG 1.1//EN" "http://www.w3.org/Graphics/SVG/1.1/DTD/svg11.dtd"><svg t="1561535663210" class="icon" viewBox="0 0 1024 1024" version="1.1" xmlns="http://www.w3.org/2000/svg" p-id="4348" xmlns:xlink="http://www.w3.org/1999/xlink" width="50" height="50"><defs><style type="text/css"></style></defs><path d="M512 512m-445 0a445 445 0 1 0 890 0 445 445 0 1 0-890 0Z" fill="#E6F3FF" p-id="4349"></path><path d="M650 679.3H374c-16.2 0-29.3-13.1-29.3-29.3V374c0-16.2 13.1-29.3 29.3-29.3h276c16.2 0 29.3 13.1 29.3 29.3v276c0 16.2-13.1 29.3-29.3 29.3z" fill="#148AF4" p-id="4350"></path><path d="M650 679.3H374c-16.2 0-29.3-13.1-29.3-29.3V374c0-16.2 13.1-29.3 29.3-29.3h276c16.2 0 29.3 13.1 29.3 29.3v276c0 16.2-13.1 29.3-29.3 29.3z" fill="#148AF4" p-id="4351"></path><path d="M454.8 454.8h-75.3v-75.3h75.3v75.3z m-66.9-8.3h58.6v-58.6h-58.6v58.6z" fill="#22D0FF" p-id="4352"></path><path d="M400.4 400.4h33.5v33.5h-33.5zM644.5 454.8h-75.3v-75.3h75.3v75.3z m-67-8.3h58.6v-58.6h-58.6v58.6z" fill="#22D0FF" p-id="4353"></path><path d="M590.1 400.4h33.5v33.5h-33.5zM454.8 644.5h-75.3v-75.3h75.3v75.3z m-66.9-8.4h58.6v-58.6h-58.6v58.6zM644.5 644.5h-75.3v-75.3h75.3v75.3z m-67-8.4h58.6v-58.6h-58.6v58.6z" fill="#22D0FF" p-id="4354"></path><path d="M400.4 590.1h33.5v33.5h-33.5zM590.1 590.1h33.5v33.5h-33.5zM454.8 454.8h-75.3v-75.3h75.3v75.3z m-66.9-8.3h58.6v-58.6h-58.6v58.6z" fill="#22D0FF" p-id="4355"></path><path d="M400.4 400.4h33.5v33.5h-33.5zM644.5 454.8h-75.3v-75.3h75.3v75.3z m-67-8.3h58.6v-58.6h-58.6v58.6z" fill="#22D0FF" p-id="4356"></path><path d="M590.1 400.4h33.5v33.5h-33.5zM454.8 644.5h-75.3v-75.3h75.3v75.3z m-66.9-8.4h58.6v-58.6h-58.6v58.6zM644.5 644.5h-75.3v-75.3h75.3v75.3z m-67-8.4h58.6v-58.6h-58.6v58.6z" fill="#22D0FF" p-id="4357"></path><path d="M400.4 590.1h33.5v33.5h-33.5zM590.1 590.1h33.5v33.5h-33.5z" fill="#22D0FF" p-id="4358"></path><path d="M696.1 507.8H327.9c-4.6 0-8.4-3.7-8.4-8.4 0-4.6 3.7-8.4 8.4-8.4H696c4.6 0 8.4 3.7 8.4 8.4s-3.7 8.4-8.3 8.4z" fill="#22D0FF" p-id="4359"></path><path d="M696.1 507.8H327.9c-4.6 0-8.4-3.7-8.4-8.4 0-4.6 3.7-8.4 8.4-8.4H696c4.6 0 8.4 3.7 8.4 8.4s-3.7 8.4-8.3 8.4z" fill="#22D0FF" p-id="4360"></path><path d="M327.9 545.5c-4.6 0-8.4 3.7-8.4 8.4 0 4.6 3.7 8.4 8.4 8.4h16.7v-16.7h-16.7z" fill="#B8DDFF" p-id="4361"></path><path d="M327.9 545.5c-4.6 0-8.4 3.7-8.4 8.4 0 4.6 3.7 8.4 8.4 8.4h16.7v-16.7h-16.7z" fill="#B8DDFF" p-id="4362"></path><path d="M696.1 545.5h-16.7v16.7h16.7c4.6 0 8.4-3.7 8.4-8.4-0.1-4.6-3.8-8.3-8.4-8.3z" fill="#B8DDFF" p-id="4363"></path><path d="M696.1 545.5h-16.7v16.7h16.7c4.6 0 8.4-3.7 8.4-8.4-0.1-4.6-3.8-8.3-8.4-8.3z" fill="#B8DDFF" p-id="4364"></path><path d="M344.7 528.7h334.7v16.7H344.7z" fill="#B8DDFF" p-id="4365"></path><path d="M344.7 528.7h334.7v16.7H344.7z" fill="#B8DDFF" p-id="4366"></path></svg>