<?xml version="1.0" standalone="no"?><!DOCTYPE svg PUBLIC "-//W3C//DTD SVG 1.1//EN" "http://www.w3.org/Graphics/SVG/1.1/DTD/svg11.dtd"><svg t="1561535787324" class="icon" viewBox="0 0 1024 1024" version="1.1" xmlns="http://www.w3.org/2000/svg" p-id="4857" xmlns:xlink="http://www.w3.org/1999/xlink" width="50" height="50"><defs><style type="text/css"></style></defs><path d="M512 512m-445 0a445 445 0 1 0 890 0 445 445 0 1 0-890 0Z" fill="#E6F3FF" p-id="4858"></path><path d="M710.3 602c-5-36.9-30.3-67.3-64.4-79.6 21.6-11.9 36.2-34.8 36.2-61.1 0-38.5-31.2-69.7-69.8-69.7-38.5 0-69.8 31.2-69.8 69.7 0 26.4 14.6 49.3 36.2 61.1-34 12.3-59.4 42.7-64.4 79.6-0.9 7 4.5 13.3 11.5 13.3h172.8c7.3 0 12.7-6.3 11.7-13.3z" fill="#B8DDFF" p-id="4859"></path><path d="M509.5 602c-5-36.9-30.3-67.3-64.4-79.6 21.6-11.9 36.2-34.8 36.2-61.1 0-38.5-31.2-69.7-69.8-69.7-38.5 0-69.8 31.2-69.8 69.7 0 26.4 14.6 49.3 36.2 61.1-34 12.3-59.4 42.7-64.4 79.6-0.9 7 4.5 13.3 11.5 13.3h173c7.1 0 12.5-6.3 11.5-13.3z" fill="#22D0FF" p-id="4860"></path><path d="M512 530.1c69.3 0 126.6 51.5 135.6 118.4 1.3 9.7-6.2 18.4-16 18.4H392.4c-9.8 0-17.3-8.7-16-18.4 9-66.9 66.3-118.4 135.6-118.4z" fill="#148AF4" p-id="4861"></path><path d="M512 453.7m-96.6 0a96.6 96.6 0 1 0 193.2 0 96.6 96.6 0 1 0-193.2 0Z" fill="#148AF4" p-id="4862"></path></svg>