<?xml version="1.0" standalone="no"?><!DOCTYPE svg PUBLIC "-//W3C//DTD SVG 1.1//EN" "http://www.w3.org/Graphics/SVG/1.1/DTD/svg11.dtd"><svg t="1561535772825" class="icon" viewBox="0 0 1024 1024" version="1.1" xmlns="http://www.w3.org/2000/svg" p-id="4607" xmlns:xlink="http://www.w3.org/1999/xlink" width="50" height="50"><defs><style type="text/css"></style></defs><path d="M512 512m-445 0a445 445 0 1 0 890 0 445 445 0 1 0-890 0Z" fill="#E6F3FF" p-id="4608"></path><path d="M693.9 383.5H330.1c-9.1 0-16.5-7.4-16.5-16.5v-3c0-9.1 7.4-16.5 16.5-16.5h363.8c9.1 0 16.5 7.4 16.5 16.5v3c0 9.1-7.4 16.5-16.5 16.5z" fill="#B8DDFF" p-id="4609"></path><path d="M340.6 383.5v275.1c0 10 8.1 18 18 18h306.7c10 0 18-8.1 18-18V383.5H340.6z" fill="#148AF4" p-id="4610"></path><path d="M417.3 618c-1.9 0-3.9-0.6-5.5-1.9-3.9-3.1-4.6-8.7-1.6-12.7l63.1-81.2c3.1-3.9 8.7-4.6 12.7-1.6 3.9 3.1 4.6 8.7 1.6 12.7l-63.1 81.2c-1.9 2.3-4.5 3.5-7.2 3.5zM543.6 599.9c-1.9 0-3.9-0.6-5.5-1.9-3.9-3.1-4.6-8.7-1.6-12.7l63.1-81.2c3.1-3.9 8.7-4.7 12.7-1.6 3.9 3.1 4.6 8.7 1.6 12.7l-63.1 81.2c-1.9 2.3-4.6 3.5-7.2 3.5z" fill="#22D0FF" p-id="4611"></path><path d="M417.3 609m-27.1 0a27.1 27.1 0 1 0 54.2 0 27.1 27.1 0 1 0-54.2 0Z" fill="#22D0FF" p-id="4612"></path><path d="M539.1 595.4c-2.3 0-4.6-0.9-6.4-2.6l-58.6-58.6c-3.5-3.5-3.5-9.2 0-12.8 3.5-3.5 9.2-3.5 12.8 0l58.6 58.6c3.5 3.5 3.5 9.2 0 12.8-1.8 1.8-4.1 2.6-6.4 2.6z" fill="#22D0FF" p-id="4613"></path><path d="M480.4 527.8m-27.1 0a27.1 27.1 0 1 0 54.2 0 27.1 27.1 0 1 0-54.2 0Z" fill="#22D0FF" p-id="4614"></path><path d="M543.6 590.9m-27.1 0a27.1 27.1 0 1 0 54.2 0 27.1 27.1 0 1 0-54.2 0Z" fill="#22D0FF" p-id="4615"></path><path d="M606.7 509.7m-27.1 0a27.1 27.1 0 1 0 54.2 0 27.1 27.1 0 1 0-54.2 0Z" fill="#22D0FF" p-id="4616"></path><path d="M376.7 419.5m-9 0a9 9 0 1 0 18 0 9 9 0 1 0-18 0Z" fill="#22D0FF" p-id="4617"></path><path d="M457.9 428.6h-54.1c-5 0-9-4-9-9s4-9 9-9h54.1c5 0 9 4 9 9 0 4.9-4 9-9 9z" fill="#22D0FF" p-id="4618"></path><path d="M376.7 452.6m-9 0a9 9 0 1 0 18 0 9 9 0 1 0-18 0Z" fill="#22D0FF" p-id="4619"></path><path d="M494 461.6h-90.2c-5 0-9-4-9-9s4-9 9-9H494c5 0 9 4 9 9s-4.1 9-9 9z" fill="#22D0FF" p-id="4620"></path></svg>